<mxfile host="app.diagrams.net" modified="2022-09-29T13:17:58.295Z" agent="5.0 (Windows)" etag="3JPpN6vH1nEdK8Ut5yrQ" version="20.3.7" type="github">
  <diagram id="QGEiR0Xux3w9Zw_Gpqtk" name="Page-1">
    <mxGraphModel dx="2031" dy="1074" grid="1" gridSize="10" guides="1" tooltips="1" connect="1" arrows="1" fold="1" page="1" pageScale="1" pageWidth="850" pageHeight="1100" math="0" shadow="0">
      <root>
        <mxCell id="0" />
        <mxCell id="1" parent="0" />
        <mxCell id="sGOl5-fZ5bcZWh_IB6wh-2" value="&lt;div&gt;MEMBERS&lt;/div&gt;&lt;div&gt;&lt;br&gt;&lt;/div&gt;&lt;div&gt;member_id&lt;/div&gt;&lt;div&gt;&lt;br&gt;&lt;/div&gt;&lt;div&gt;email address&lt;br&gt;&lt;/div&gt;&lt;div&gt;&lt;br&gt;&lt;/div&gt;&lt;div&gt;address&lt;/div&gt;&lt;div&gt;&lt;br&gt;&lt;/div&gt;&lt;div&gt;phone number&lt;br&gt;&lt;/div&gt;&lt;div&gt;&lt;br&gt;&lt;/div&gt;&lt;div&gt;password&lt;br&gt;&lt;/div&gt;&lt;div&gt;&lt;br&gt;&lt;/div&gt;" style="shape=internalStorage;whiteSpace=wrap;html=1;backgroundOutline=1;dx=40;dy=40;" vertex="1" parent="1">
          <mxGeometry x="290" y="20" width="190" height="210" as="geometry" />
        </mxCell>
        <mxCell id="sGOl5-fZ5bcZWh_IB6wh-4" value="D" style="ellipse;whiteSpace=wrap;html=1;aspect=fixed;" vertex="1" parent="1">
          <mxGeometry x="365" y="280" width="40" height="40" as="geometry" />
        </mxCell>
        <mxCell id="sGOl5-fZ5bcZWh_IB6wh-5" value="" style="shape=link;html=1;rounded=0;exitX=0.5;exitY=1;exitDx=0;exitDy=0;entryX=0.5;entryY=0;entryDx=0;entryDy=0;" edge="1" parent="1" source="sGOl5-fZ5bcZWh_IB6wh-2" target="sGOl5-fZ5bcZWh_IB6wh-4">
          <mxGeometry width="100" relative="1" as="geometry">
            <mxPoint x="290" y="290" as="sourcePoint" />
            <mxPoint x="390" y="290" as="targetPoint" />
          </mxGeometry>
        </mxCell>
        <mxCell id="sGOl5-fZ5bcZWh_IB6wh-6" value="&lt;div&gt;SELLER&lt;/div&gt;&lt;div&gt;&lt;br&gt;&lt;/div&gt;&lt;div&gt;bank account number&lt;br&gt;&lt;/div&gt;&lt;div&gt;&lt;br&gt;&lt;/div&gt;&lt;div&gt;routing number&lt;br&gt;&lt;/div&gt;" style="shape=internalStorage;whiteSpace=wrap;html=1;backgroundOutline=1;" vertex="1" parent="1">
          <mxGeometry x="560" y="340" width="180" height="80" as="geometry" />
        </mxCell>
        <mxCell id="sGOl5-fZ5bcZWh_IB6wh-8" value="&lt;div&gt;BUYER&lt;/div&gt;&lt;div&gt;&lt;br&gt;&lt;/div&gt;&lt;div&gt;member_id&lt;/div&gt;&lt;div&gt;&lt;br&gt;&lt;/div&gt;&lt;div&gt;shipping address&lt;br&gt;&lt;/div&gt;" style="shape=internalStorage;whiteSpace=wrap;html=1;backgroundOutline=1;" vertex="1" parent="1">
          <mxGeometry x="60" y="340" width="180" height="80" as="geometry" />
        </mxCell>
        <mxCell id="sGOl5-fZ5bcZWh_IB6wh-10" value="&lt;div&gt;FEEDBACK&lt;/div&gt;&lt;div&gt;feedback&lt;br&gt;&lt;/div&gt;" style="rhombus;whiteSpace=wrap;html=1;" vertex="1" parent="1">
          <mxGeometry x="312.5" y="340" width="145" height="80" as="geometry" />
        </mxCell>
        <mxCell id="sGOl5-fZ5bcZWh_IB6wh-13" value="BID" style="rhombus;whiteSpace=wrap;html=1;" vertex="1" parent="1">
          <mxGeometry x="105" y="490" width="90" height="50" as="geometry" />
        </mxCell>
        <mxCell id="sGOl5-fZ5bcZWh_IB6wh-15" value="&lt;div&gt;AUCTION&lt;/div&gt;&lt;div&gt;&lt;br&gt;&lt;/div&gt;&lt;div&gt;member_id&lt;/div&gt;&lt;div&gt;&lt;br&gt;&lt;/div&gt;&lt;div&gt;time of bid&lt;br&gt;&lt;/div&gt;&lt;div&gt;&lt;br&gt;&lt;/div&gt;&lt;div&gt;highest bid&lt;br&gt;&lt;/div&gt;&lt;div&gt;&lt;br&gt;&lt;/div&gt;" style="shape=internalStorage;whiteSpace=wrap;html=1;backgroundOutline=1;dx=18;dy=20;" vertex="1" parent="1">
          <mxGeometry x="72.5" y="600" width="155" height="130" as="geometry" />
        </mxCell>
        <mxCell id="sGOl5-fZ5bcZWh_IB6wh-17" value="SUPPLIES" style="rhombus;whiteSpace=wrap;html=1;" vertex="1" parent="1">
          <mxGeometry x="339" y="485" width="92" height="60" as="geometry" />
        </mxCell>
        <mxCell id="sGOl5-fZ5bcZWh_IB6wh-20" value="&lt;div&gt;ITEM&lt;/div&gt;&lt;div&gt;&lt;br&gt;&lt;/div&gt;&lt;div&gt;item number&lt;/div&gt;&lt;div&gt;&lt;br&gt;&lt;/div&gt;&lt;div&gt;item title&lt;br&gt;&lt;/div&gt;&lt;div&gt;&lt;br&gt;&lt;/div&gt;&lt;div&gt;item description&lt;/div&gt;&lt;div&gt;&lt;br&gt;&lt;/div&gt;&lt;div&gt;starting bid price&lt;/div&gt;&lt;div&gt;&lt;br&gt;&lt;/div&gt;&lt;div&gt;bid increment&lt;/div&gt;&lt;div&gt;&lt;br&gt;&lt;/div&gt;&lt;div&gt;start date&lt;/div&gt;&lt;div&gt;&lt;br&gt;&lt;/div&gt;&lt;div&gt;end date&lt;/div&gt;&lt;div&gt;&lt;br&gt;&lt;/div&gt;&lt;div&gt;member id&lt;br&gt;&lt;/div&gt;" style="shape=internalStorage;whiteSpace=wrap;html=1;backgroundOutline=1;dx=25;dy=20;" vertex="1" parent="1">
          <mxGeometry x="405" y="570" width="169" height="260" as="geometry" />
        </mxCell>
        <mxCell id="sGOl5-fZ5bcZWh_IB6wh-21" value="D" style="ellipse;whiteSpace=wrap;html=1;aspect=fixed;" vertex="1" parent="1">
          <mxGeometry x="469.5" y="850" width="40" height="40" as="geometry" />
        </mxCell>
        <mxCell id="sGOl5-fZ5bcZWh_IB6wh-22" value="" style="shape=link;html=1;rounded=0;exitX=0.5;exitY=1;exitDx=0;exitDy=0;entryX=0.5;entryY=0;entryDx=0;entryDy=0;" edge="1" parent="1" source="sGOl5-fZ5bcZWh_IB6wh-20" target="sGOl5-fZ5bcZWh_IB6wh-21">
          <mxGeometry width="100" relative="1" as="geometry">
            <mxPoint x="360" y="870" as="sourcePoint" />
            <mxPoint x="460" y="870" as="targetPoint" />
          </mxGeometry>
        </mxCell>
        <mxCell id="sGOl5-fZ5bcZWh_IB6wh-23" value="&lt;div&gt;COMPUTER&lt;/div&gt;&lt;div&gt;&lt;br&gt;&lt;/div&gt;&lt;div&gt;item number&lt;br&gt;&lt;/div&gt;&lt;div&gt;model&lt;br&gt;&lt;/div&gt;&lt;div&gt;date manufactured&lt;br&gt;&lt;/div&gt;&lt;div&gt;&lt;br&gt;&lt;/div&gt;" style="shape=internalStorage;whiteSpace=wrap;html=1;backgroundOutline=1;" vertex="1" parent="1">
          <mxGeometry x="290" y="910" width="180" height="90" as="geometry" />
        </mxCell>
        <mxCell id="sGOl5-fZ5bcZWh_IB6wh-24" value="&lt;div&gt;non computer&lt;/div&gt;&lt;div&gt;&lt;br&gt;&lt;/div&gt;&lt;div&gt;item number&lt;br&gt;&lt;/div&gt;&lt;div&gt;type&lt;br&gt;&lt;/div&gt;&lt;div&gt;&lt;br&gt;&lt;/div&gt;&lt;div&gt;&lt;br&gt;&lt;/div&gt;" style="shape=internalStorage;whiteSpace=wrap;html=1;backgroundOutline=1;" vertex="1" parent="1">
          <mxGeometry x="509.5" y="910" width="160" height="90" as="geometry" />
        </mxCell>
        <mxCell id="sGOl5-fZ5bcZWh_IB6wh-25" value="supply" style="rhombus;whiteSpace=wrap;html=1;" vertex="1" parent="1">
          <mxGeometry x="605" y="480" width="90" height="50" as="geometry" />
        </mxCell>
        <mxCell id="sGOl5-fZ5bcZWh_IB6wh-28" value="winner" style="rhombus;whiteSpace=wrap;html=1;" vertex="1" parent="1">
          <mxGeometry x="110" y="790" width="80" height="50" as="geometry" />
        </mxCell>
        <mxCell id="sGOl5-fZ5bcZWh_IB6wh-36" value="" style="endArrow=none;html=1;rounded=0;elbow=vertical;exitX=0.5;exitY=0;exitDx=0;exitDy=0;entryX=0;entryY=0.5;entryDx=0;entryDy=0;" edge="1" parent="1" source="sGOl5-fZ5bcZWh_IB6wh-23" target="sGOl5-fZ5bcZWh_IB6wh-21">
          <mxGeometry width="50" height="50" relative="1" as="geometry">
            <mxPoint x="360" y="890" as="sourcePoint" />
            <mxPoint x="410" y="840" as="targetPoint" />
          </mxGeometry>
        </mxCell>
        <mxCell id="sGOl5-fZ5bcZWh_IB6wh-37" value="" style="endArrow=none;html=1;rounded=0;elbow=vertical;entryX=1;entryY=0.5;entryDx=0;entryDy=0;exitX=0.5;exitY=0;exitDx=0;exitDy=0;" edge="1" parent="1" source="sGOl5-fZ5bcZWh_IB6wh-24" target="sGOl5-fZ5bcZWh_IB6wh-21">
          <mxGeometry width="50" height="50" relative="1" as="geometry">
            <mxPoint x="570" y="900" as="sourcePoint" />
            <mxPoint x="620" y="850" as="targetPoint" />
          </mxGeometry>
        </mxCell>
        <mxCell id="sGOl5-fZ5bcZWh_IB6wh-39" value="" style="endArrow=none;html=1;rounded=0;elbow=vertical;entryX=0.5;entryY=1;entryDx=0;entryDy=0;exitX=0.5;exitY=0;exitDx=0;exitDy=0;" edge="1" parent="1" source="sGOl5-fZ5bcZWh_IB6wh-28" target="sGOl5-fZ5bcZWh_IB6wh-15">
          <mxGeometry width="50" height="50" relative="1" as="geometry">
            <mxPoint x="140" y="790" as="sourcePoint" />
            <mxPoint x="190" y="740" as="targetPoint" />
            <Array as="points">
              <mxPoint x="150" y="750" />
            </Array>
          </mxGeometry>
        </mxCell>
        <mxCell id="sGOl5-fZ5bcZWh_IB6wh-40" value="" style="endArrow=none;html=1;rounded=0;elbow=vertical;exitX=1;exitY=0.25;exitDx=0;exitDy=0;entryX=0;entryY=0.5;entryDx=0;entryDy=0;" edge="1" parent="1" source="sGOl5-fZ5bcZWh_IB6wh-15" target="sGOl5-fZ5bcZWh_IB6wh-17">
          <mxGeometry width="50" height="50" relative="1" as="geometry">
            <mxPoint x="250" y="680" as="sourcePoint" />
            <mxPoint x="300" y="630" as="targetPoint" />
          </mxGeometry>
        </mxCell>
        <mxCell id="sGOl5-fZ5bcZWh_IB6wh-41" value="" style="endArrow=none;html=1;rounded=0;elbow=vertical;exitX=1;exitY=0.5;exitDx=0;exitDy=0;entryX=0;entryY=0.75;entryDx=0;entryDy=0;" edge="1" parent="1" source="sGOl5-fZ5bcZWh_IB6wh-17" target="sGOl5-fZ5bcZWh_IB6wh-6">
          <mxGeometry width="50" height="50" relative="1" as="geometry">
            <mxPoint x="480" y="530" as="sourcePoint" />
            <mxPoint x="530" y="480" as="targetPoint" />
          </mxGeometry>
        </mxCell>
        <mxCell id="sGOl5-fZ5bcZWh_IB6wh-42" value="" style="endArrow=none;html=1;rounded=0;elbow=vertical;entryX=0.5;entryY=1;entryDx=0;entryDy=0;exitX=0.5;exitY=0;exitDx=0;exitDy=0;" edge="1" parent="1" source="sGOl5-fZ5bcZWh_IB6wh-25" target="sGOl5-fZ5bcZWh_IB6wh-6">
          <mxGeometry width="50" height="50" relative="1" as="geometry">
            <mxPoint x="580" y="490" as="sourcePoint" />
            <mxPoint x="630" y="440" as="targetPoint" />
          </mxGeometry>
        </mxCell>
        <mxCell id="sGOl5-fZ5bcZWh_IB6wh-43" value="" style="endArrow=none;html=1;rounded=0;elbow=vertical;entryX=0;entryY=0.5;entryDx=0;entryDy=0;exitX=0.5;exitY=0;exitDx=0;exitDy=0;" edge="1" parent="1" source="sGOl5-fZ5bcZWh_IB6wh-82" target="sGOl5-fZ5bcZWh_IB6wh-25">
          <mxGeometry width="50" height="50" relative="1" as="geometry">
            <mxPoint x="500" y="560" as="sourcePoint" />
            <mxPoint x="530" y="520" as="targetPoint" />
          </mxGeometry>
        </mxCell>
        <mxCell id="sGOl5-fZ5bcZWh_IB6wh-44" value="" style="endArrow=none;html=1;rounded=0;elbow=vertical;entryX=0.5;entryY=1;entryDx=0;entryDy=0;" edge="1" parent="1" target="sGOl5-fZ5bcZWh_IB6wh-8">
          <mxGeometry width="50" height="50" relative="1" as="geometry">
            <mxPoint x="150" y="490" as="sourcePoint" />
            <mxPoint x="200" y="440" as="targetPoint" />
          </mxGeometry>
        </mxCell>
        <mxCell id="sGOl5-fZ5bcZWh_IB6wh-45" value="" style="endArrow=none;html=1;rounded=0;elbow=vertical;entryX=0.5;entryY=1;entryDx=0;entryDy=0;exitX=0.5;exitY=0;exitDx=0;exitDy=0;startArrow=none;" edge="1" parent="1" source="sGOl5-fZ5bcZWh_IB6wh-59" target="sGOl5-fZ5bcZWh_IB6wh-13">
          <mxGeometry width="50" height="50" relative="1" as="geometry">
            <mxPoint x="240" y="600" as="sourcePoint" />
            <mxPoint x="290" y="550" as="targetPoint" />
          </mxGeometry>
        </mxCell>
        <mxCell id="sGOl5-fZ5bcZWh_IB6wh-46" value="" style="endArrow=none;html=1;rounded=0;elbow=vertical;exitX=1;exitY=0.5;exitDx=0;exitDy=0;entryX=0;entryY=0.5;entryDx=0;entryDy=0;startArrow=none;" edge="1" parent="1" source="sGOl5-fZ5bcZWh_IB6wh-65" target="sGOl5-fZ5bcZWh_IB6wh-10">
          <mxGeometry width="50" height="50" relative="1" as="geometry">
            <mxPoint x="230" y="460" as="sourcePoint" />
            <mxPoint x="280" y="410" as="targetPoint" />
          </mxGeometry>
        </mxCell>
        <mxCell id="sGOl5-fZ5bcZWh_IB6wh-47" value="" style="endArrow=none;html=1;rounded=0;elbow=vertical;entryX=0;entryY=0.5;entryDx=0;entryDy=0;" edge="1" parent="1" target="sGOl5-fZ5bcZWh_IB6wh-6">
          <mxGeometry width="50" height="50" relative="1" as="geometry">
            <mxPoint x="460" y="380" as="sourcePoint" />
            <mxPoint x="490" y="410" as="targetPoint" />
          </mxGeometry>
        </mxCell>
        <mxCell id="sGOl5-fZ5bcZWh_IB6wh-49" value="" style="endArrow=none;html=1;rounded=0;elbow=vertical;exitX=1;exitY=0.5;exitDx=0;exitDy=0;entryX=0.5;entryY=0;entryDx=0;entryDy=0;" edge="1" parent="1" source="sGOl5-fZ5bcZWh_IB6wh-4" target="sGOl5-fZ5bcZWh_IB6wh-6">
          <mxGeometry width="50" height="50" relative="1" as="geometry">
            <mxPoint x="440" y="320" as="sourcePoint" />
            <mxPoint x="490" y="270" as="targetPoint" />
          </mxGeometry>
        </mxCell>
        <mxCell id="sGOl5-fZ5bcZWh_IB6wh-50" value="" style="endArrow=none;html=1;rounded=0;elbow=vertical;entryX=0;entryY=0.5;entryDx=0;entryDy=0;exitX=0.5;exitY=0;exitDx=0;exitDy=0;" edge="1" parent="1" source="sGOl5-fZ5bcZWh_IB6wh-8" target="sGOl5-fZ5bcZWh_IB6wh-4">
          <mxGeometry width="50" height="50" relative="1" as="geometry">
            <mxPoint x="190" y="320" as="sourcePoint" />
            <mxPoint x="240" y="270" as="targetPoint" />
          </mxGeometry>
        </mxCell>
        <mxCell id="sGOl5-fZ5bcZWh_IB6wh-51" value="" style="triangle;whiteSpace=wrap;html=1;rotation=-180;" vertex="1" parent="1">
          <mxGeometry x="395" y="810" width="10" height="10" as="geometry" />
        </mxCell>
        <mxCell id="sGOl5-fZ5bcZWh_IB6wh-52" value="" style="ellipse;whiteSpace=wrap;html=1;aspect=fixed;" vertex="1" parent="1">
          <mxGeometry x="385" y="810" width="10" height="10" as="geometry" />
        </mxCell>
        <mxCell id="sGOl5-fZ5bcZWh_IB6wh-54" value="" style="endArrow=none;html=1;rounded=0;elbow=vertical;exitX=1;exitY=0.5;exitDx=0;exitDy=0;entryX=0;entryY=0.5;entryDx=0;entryDy=0;" edge="1" parent="1" source="sGOl5-fZ5bcZWh_IB6wh-28" target="sGOl5-fZ5bcZWh_IB6wh-52">
          <mxGeometry width="50" height="50" relative="1" as="geometry">
            <mxPoint x="190" y="815" as="sourcePoint" />
            <mxPoint x="380" y="815" as="targetPoint" />
          </mxGeometry>
        </mxCell>
        <mxCell id="sGOl5-fZ5bcZWh_IB6wh-55" value="" style="endArrow=none;html=1;rounded=0;elbow=vertical;" edge="1" parent="1">
          <mxGeometry width="50" height="50" relative="1" as="geometry">
            <mxPoint x="145" y="740" as="sourcePoint" />
            <mxPoint x="155" y="740" as="targetPoint" />
          </mxGeometry>
        </mxCell>
        <mxCell id="sGOl5-fZ5bcZWh_IB6wh-56" value="" style="endArrow=none;html=1;rounded=0;elbow=vertical;" edge="1" parent="1">
          <mxGeometry width="50" height="50" relative="1" as="geometry">
            <mxPoint x="145" y="750" as="sourcePoint" />
            <mxPoint x="155" y="750" as="targetPoint" />
          </mxGeometry>
        </mxCell>
        <mxCell id="sGOl5-fZ5bcZWh_IB6wh-57" value="" style="triangle;whiteSpace=wrap;html=1;rotation=-90;" vertex="1" parent="1">
          <mxGeometry x="145" y="590" width="10" height="10" as="geometry" />
        </mxCell>
        <mxCell id="sGOl5-fZ5bcZWh_IB6wh-59" value="" style="ellipse;whiteSpace=wrap;html=1;aspect=fixed;" vertex="1" parent="1">
          <mxGeometry x="145" y="580" width="10" height="10" as="geometry" />
        </mxCell>
        <mxCell id="sGOl5-fZ5bcZWh_IB6wh-60" value="" style="endArrow=none;html=1;rounded=0;elbow=vertical;entryX=0.5;entryY=1;entryDx=0;entryDy=0;exitX=0.5;exitY=0;exitDx=0;exitDy=0;" edge="1" parent="1" source="sGOl5-fZ5bcZWh_IB6wh-15" target="sGOl5-fZ5bcZWh_IB6wh-59">
          <mxGeometry width="50" height="50" relative="1" as="geometry">
            <mxPoint x="150" y="600" as="sourcePoint" />
            <mxPoint x="150" y="540" as="targetPoint" />
          </mxGeometry>
        </mxCell>
        <mxCell id="sGOl5-fZ5bcZWh_IB6wh-62" value="" style="endArrow=none;html=1;rounded=0;elbow=vertical;" edge="1" parent="1">
          <mxGeometry width="50" height="50" relative="1" as="geometry">
            <mxPoint x="145" y="430" as="sourcePoint" />
            <mxPoint x="155" y="430" as="targetPoint" />
          </mxGeometry>
        </mxCell>
        <mxCell id="sGOl5-fZ5bcZWh_IB6wh-63" value="" style="endArrow=none;html=1;rounded=0;elbow=vertical;" edge="1" parent="1">
          <mxGeometry width="50" height="50" relative="1" as="geometry">
            <mxPoint x="146.25" y="440" as="sourcePoint" />
            <mxPoint x="153.75" y="440" as="targetPoint" />
          </mxGeometry>
        </mxCell>
        <mxCell id="sGOl5-fZ5bcZWh_IB6wh-64" value="" style="endArrow=none;html=1;rounded=0;elbow=vertical;" edge="1" parent="1">
          <mxGeometry width="50" height="50" relative="1" as="geometry">
            <mxPoint x="250" y="385" as="sourcePoint" />
            <mxPoint x="250" y="375" as="targetPoint" />
          </mxGeometry>
        </mxCell>
        <mxCell id="sGOl5-fZ5bcZWh_IB6wh-65" value="" style="ellipse;whiteSpace=wrap;html=1;aspect=fixed;" vertex="1" parent="1">
          <mxGeometry x="250" y="375" width="10" height="10" as="geometry" />
        </mxCell>
        <mxCell id="sGOl5-fZ5bcZWh_IB6wh-66" value="" style="endArrow=none;html=1;rounded=0;elbow=vertical;exitX=1;exitY=0.5;exitDx=0;exitDy=0;entryX=0;entryY=0.5;entryDx=0;entryDy=0;" edge="1" parent="1" source="sGOl5-fZ5bcZWh_IB6wh-8" target="sGOl5-fZ5bcZWh_IB6wh-65">
          <mxGeometry width="50" height="50" relative="1" as="geometry">
            <mxPoint x="240" y="380" as="sourcePoint" />
            <mxPoint x="312.5000000000001" y="380" as="targetPoint" />
          </mxGeometry>
        </mxCell>
        <mxCell id="sGOl5-fZ5bcZWh_IB6wh-68" value="" style="ellipse;whiteSpace=wrap;html=1;aspect=fixed;" vertex="1" parent="1">
          <mxGeometry x="540" y="375" width="10" height="10" as="geometry" />
        </mxCell>
        <mxCell id="sGOl5-fZ5bcZWh_IB6wh-69" value="" style="endArrow=none;html=1;rounded=0;elbow=vertical;" edge="1" parent="1">
          <mxGeometry width="50" height="50" relative="1" as="geometry">
            <mxPoint x="550" y="385" as="sourcePoint" />
            <mxPoint x="550" y="375" as="targetPoint" />
          </mxGeometry>
        </mxCell>
        <mxCell id="sGOl5-fZ5bcZWh_IB6wh-74" value="" style="endArrow=none;html=1;rounded=0;elbow=vertical;" edge="1" parent="1">
          <mxGeometry width="50" height="50" relative="1" as="geometry">
            <mxPoint x="240" y="610" as="sourcePoint" />
            <mxPoint x="250" y="620" as="targetPoint" />
          </mxGeometry>
        </mxCell>
        <mxCell id="sGOl5-fZ5bcZWh_IB6wh-75" value="" style="endArrow=none;html=1;rounded=0;elbow=vertical;" edge="1" parent="1">
          <mxGeometry width="50" height="50" relative="1" as="geometry">
            <mxPoint x="250" y="600" as="sourcePoint" />
            <mxPoint x="260" y="610" as="targetPoint" />
          </mxGeometry>
        </mxCell>
        <mxCell id="sGOl5-fZ5bcZWh_IB6wh-76" value="" style="endArrow=none;html=1;rounded=0;elbow=vertical;" edge="1" parent="1">
          <mxGeometry width="50" height="50" relative="1" as="geometry">
            <mxPoint x="540" y="410" as="sourcePoint" />
            <mxPoint x="550" y="420" as="targetPoint" />
          </mxGeometry>
        </mxCell>
        <mxCell id="sGOl5-fZ5bcZWh_IB6wh-77" value="" style="endArrow=none;html=1;rounded=0;elbow=vertical;" edge="1" parent="1">
          <mxGeometry width="50" height="50" relative="1" as="geometry">
            <mxPoint x="530" y="420" as="sourcePoint" />
            <mxPoint x="540" y="430" as="targetPoint" />
          </mxGeometry>
        </mxCell>
        <mxCell id="sGOl5-fZ5bcZWh_IB6wh-78" value="" style="endArrow=none;html=1;rounded=0;elbow=vertical;" edge="1" parent="1">
          <mxGeometry width="50" height="50" relative="1" as="geometry">
            <mxPoint x="645" y="430" as="sourcePoint" />
            <mxPoint x="655" y="430" as="targetPoint" />
          </mxGeometry>
        </mxCell>
        <mxCell id="sGOl5-fZ5bcZWh_IB6wh-79" value="" style="endArrow=none;html=1;rounded=0;elbow=vertical;" edge="1" parent="1">
          <mxGeometry width="50" height="50" relative="1" as="geometry">
            <mxPoint x="645" y="440" as="sourcePoint" />
            <mxPoint x="655" y="440" as="targetPoint" />
          </mxGeometry>
        </mxCell>
        <mxCell id="sGOl5-fZ5bcZWh_IB6wh-81" value="" style="triangle;whiteSpace=wrap;html=1;rotation=-90;" vertex="1" parent="1">
          <mxGeometry x="480" y="560" width="10" height="10" as="geometry" />
        </mxCell>
        <mxCell id="sGOl5-fZ5bcZWh_IB6wh-82" value="" style="ellipse;whiteSpace=wrap;html=1;aspect=fixed;" vertex="1" parent="1">
          <mxGeometry x="480" y="550" width="10" height="10" as="geometry" />
        </mxCell>
        <mxCell id="sGOl5-fZ5bcZWh_IB6wh-83" value="&lt;div&gt;PK&lt;/div&gt;&lt;div&gt;&lt;br&gt;&lt;/div&gt;&lt;div&gt;*&lt;br&gt;&lt;/div&gt;&lt;div&gt;&lt;br&gt;&lt;/div&gt;&lt;div&gt;*&lt;br&gt;&lt;/div&gt;&lt;div&gt;&lt;br&gt;&lt;/div&gt;&lt;div&gt;*&lt;br&gt;&lt;/div&gt;&lt;div&gt;&lt;br&gt;&lt;/div&gt;&lt;div&gt;*&lt;br&gt;&lt;/div&gt;&lt;div&gt;&lt;br&gt;&lt;/div&gt;&lt;div&gt;&lt;br&gt;&lt;/div&gt;" style="rounded=0;whiteSpace=wrap;html=1;" vertex="1" parent="1">
          <mxGeometry x="290" y="60" width="40" height="170" as="geometry" />
        </mxCell>
        <mxCell id="sGOl5-fZ5bcZWh_IB6wh-85" value="&lt;div&gt;F&lt;/div&gt;&lt;div&gt;&lt;br&gt;&lt;/div&gt;&lt;div&gt;*&lt;br&gt;&lt;/div&gt;" style="rounded=0;whiteSpace=wrap;html=1;" vertex="1" parent="1">
          <mxGeometry x="60" y="360" width="20" height="60" as="geometry" />
        </mxCell>
        <mxCell id="sGOl5-fZ5bcZWh_IB6wh-86" value="&lt;div&gt;F&lt;/div&gt;&lt;div&gt;&lt;br&gt;&lt;/div&gt;&lt;div&gt;*&lt;br&gt;&lt;/div&gt;" style="rounded=0;whiteSpace=wrap;html=1;" vertex="1" parent="1">
          <mxGeometry x="560" y="360" width="20" height="60" as="geometry" />
        </mxCell>
        <mxCell id="sGOl5-fZ5bcZWh_IB6wh-87" value="&lt;div&gt;F&lt;/div&gt;&lt;div&gt;&lt;br&gt;&lt;/div&gt;&lt;div&gt;*&lt;br&gt;&lt;/div&gt;&lt;div&gt;&lt;br&gt;&lt;/div&gt;&lt;div&gt;*&lt;br&gt;&lt;/div&gt;" style="rounded=0;whiteSpace=wrap;html=1;" vertex="1" parent="1">
          <mxGeometry x="72.5" y="620" width="17.5" height="110" as="geometry" />
        </mxCell>
        <mxCell id="sGOl5-fZ5bcZWh_IB6wh-88" value="&lt;div&gt;PK&lt;/div&gt;&lt;div&gt;&lt;br&gt;&lt;/div&gt;&lt;div&gt;*&lt;br&gt;&lt;/div&gt;&lt;div&gt;&lt;br&gt;&lt;/div&gt;&lt;div&gt;*&lt;br&gt;&lt;/div&gt;&lt;div&gt;&lt;br&gt;&lt;/div&gt;&lt;div&gt;*&lt;br&gt;&lt;/div&gt;&lt;div&gt;&lt;br&gt;&lt;/div&gt;&lt;div&gt;*&lt;br&gt;&lt;/div&gt;&lt;div&gt;&lt;br&gt;&lt;/div&gt;&lt;div&gt;*&lt;br&gt;&lt;/div&gt;&lt;div&gt;&lt;br&gt;&lt;/div&gt;&lt;div&gt;*&lt;br&gt;&lt;/div&gt;&lt;div&gt;&lt;br&gt;&lt;/div&gt;&lt;div&gt;*&lt;br&gt;&lt;/div&gt;" style="rounded=0;whiteSpace=wrap;html=1;" vertex="1" parent="1">
          <mxGeometry x="405" y="590" width="25" height="240" as="geometry" />
        </mxCell>
        <mxCell id="sGOl5-fZ5bcZWh_IB6wh-89" value="&lt;div&gt;PK&lt;/div&gt;&lt;div&gt;*&lt;br&gt;&lt;/div&gt;&lt;div&gt;*&lt;br&gt;&lt;/div&gt;&lt;div&gt;&lt;br&gt;&lt;/div&gt;" style="rounded=0;whiteSpace=wrap;html=1;" vertex="1" parent="1">
          <mxGeometry x="290" y="930" width="20" height="70" as="geometry" />
        </mxCell>
        <mxCell id="sGOl5-fZ5bcZWh_IB6wh-90" value="&lt;div&gt;PK&lt;/div&gt;&lt;div&gt;*&lt;br&gt;&lt;/div&gt;&lt;div&gt;*&lt;br&gt;&lt;/div&gt;&lt;div&gt;&lt;br&gt;&lt;/div&gt;" style="rounded=0;whiteSpace=wrap;html=1;" vertex="1" parent="1">
          <mxGeometry x="509.5" y="930" width="20" height="70" as="geometry" />
        </mxCell>
        <mxCell id="sGOl5-fZ5bcZWh_IB6wh-91" value="" style="shape=image;verticalLabelPosition=bottom;labelBackgroundColor=default;verticalAlign=top;aspect=fixed;imageAspect=0;image=data:image/png,iVBORw0KGgoAAAANSUhEUgAAAhUAAALbCAYAAABNBnK6AAAgAElEQVR4XuydCZwcRfn3nw2XQLjlPgTNum/QIJdIFgRBERIWXRCCXAFUMoocGzUg4oIYQXEDWVCBXRAwgGIQWCUknKIRN6DIFXRddrmFyJ8bYjgC5O1fzfRsT0/Pdnd1d013z6/55BMyM3099dTzfOt5nqpqWmEd4jj++9//yiabbOL8SP3/u+++q/5eeeWVY/sOF+L9KE+nQo2mZ9QX9j+38aG+0F6H0QnqS/L60kSoKKokoSm8w6KTDy8zGrXkjRoHSbRnOgNg2rN47BmhomSBCBXhFYqdMLzMCBWECo6sRyTA/pC//tC0fPnyivTH//3f/8lGG20UW4rDT2l4v3jTH5Qn5RkmnUR9ob5QX0YkwP4QvT8QKhKOVFBJoyup0+hRnpQnnSCdYFKRZdqX6PaF6Y+EoYKFqNGVlDly5siZI6/uR0w/Mv0YJpVmSl8IFYQK7SJVU0pKqCBUECoIFUEjVLpRDNqzeCCNUEGoIFRYOuA1VZpGJh4jQygkFBIKGwcKCRWECkIFocJYYTbTgUwHBo04EOqzCfWECkIFoYJQQahwSIDhc0buwtQqUF8q9YWzPxKGClYTxzsyozwpzzAjXeoL9YX6Yna2EKGCUBEpUpEmo40V5996663YRt240AsvvCAbbrhhbNf0W7eF94vXCUKem2++uay22moVbag7uvRrvzT1B506Br4f12mKGqVh+iNhqGAOOV4nMZo8H330UfnSl74kO+ywQxUE6H7w3nvvyUorreR5+uuvvy6vvvqqbLXVVrqXrzpvtPvFdhPHhfJ+v9dee03Gjx8vs2bNMgIV7O/m+nsS0MT2i95+hApCRaRIRZo6IaDi8ssvr3IgSThjXPPee++VO+64Q04//fSkbsHrRpQAdKK3t5dQwZoRJQG/SEya7FlWoYlQQaggVGg6LkKFpuAMnkaoiD7ydDYXnS7l6dQHL0gjVBAqCBWaTo5QoSk4g6cRKugE/ZwgoSnedVQIFYQKQoWmkyNUaArO4GmECkIFoWJEAiYiTZz9kTBUsBo8XqM2mjzhQObMmcOaCoNOO+23gk709PTIueeeW/GonP0RfmElCJD2zJw9S6KmwkT7ESoIFZEiFSaU1OkNCBVpd+Ppej5CBZ1gmEhFmuxZZqHCmtu/gjmleHNKlGd95MnZH+ly6Gl4GqY/4oUKE+Fz2s/62M+4IIY1FQlHKtgJzRk1QkUa3Hi6noFQYa7/xeWUCBWEikjhczpddvow4Um/xa+4TkW6nHq9n4ZQQfsSl30hNAXTJUYqGKnIDRQyUlFvF56++xMqgjkCu+W4ONR/ZZNNNqlS5KQKe/M4qCZUECoIFZq+kFNKNQVn8DRCBaGCkYoRCZiAGEIFoYJQoenkCBWagjN4GqGCUEGoMAwVS5YsqZj9sXTpUhk7dmxVt3///ffVZ2PGjIntO1yI96M8nQo1mp756ctjjz0mN954o5x//vlG3BahwoiYI90EUHHBBRdIZ2dnxXVoz8Lbcr/+R/8QzpbnVZ6MVDBSwUiFptsiVGgKzuBpjFQwUsFIheFIBdepKAqchTh6K+yZyNE5jUJuZ38sKEjTZJH5K3pkknrhYelubZZ7J0yUa3sXlUUwcfaQ9Ld0ef52oHOFzBhslebp9u8nyuyhfmmb5/xMRF2jY5yIumevQ7zTSvdfIAXrYYrf2J8ZJIEYb0WoIFQQKggVdPLvvqtksPLK4QwCzkmTk9d5hyjV55me/WE5+NaZi2VCZ7/0gCqGu6Uwda68PkFk7fbSZ7ZtqPFbsc4FVHS1lH5v/a4gPZWfOS1s6Xt1Pxxev8e9BmcUISSDB6EinA2J0v9M93feL1zbmvIPTH+UDCUjFdmHmMxDxeB4mTDQYu1VMcliioLMs3Tz3oHFjkhFMfLQMQRHX/3bgZYiQIxEKqw4w3zv6IVihFqRCgtoWpunyyIp3S+bPKF6NqEinOMhVHBKqXvsENY3EioIFdqpH1Pk61TyPKc/EBHoHOgS6Zkhg91D0tHSJ4f1LfaOVHj8tioqATjoapE542eORC9qRCoWFJqkr31FMUpiHyW4sEiGkYoAdiJt/YEj+XBAxfYLP7D0Ag5uKBbAWIQlNafd5gY14Tq230gptxuK2WkGq16iYEUhxrd0SIeVvBgNKlBb4fytF1QU5rXJDJnqCxVW2MKqo+iTdqumw/qfEcAogUl/BW1kJw/CDcXM9b8kIIb2M3vtR6ggVESKVKSp02d66/Ny7cJQ2blPsj4DVDgLNa18hqxo7yvVOVT+1oaKkfRHsciyubsyJaKuAUhw1VQM43cDndZ34Ir8FGpy6/NKCOQgyXtEDimlyZ5lFdKY/kgYKhq5cDKJTpHb9Ed2Bv+ZelLWVMQ70qU9ozydBsAz/cEppUUR6dK7X7iendBcJ8x0oWamXHV2HpZQYa7/mR5E8H7h2tZUzQgjFYxUaAOVKSV1ujBGKrLj0NPwpISKcI6HgyTO/nD327ADbkIFoYJQoen9uKKmpuAMnkaoIFT4heuDDloYGQmmS4QKQgWhQtPJESo0BWfwNEJFMEdgNwkjFYxURI5ULF++vGJDMVa/xtsJKU9z8sz07A+DjraRbsUppeb6XxIjedrP7LUfp5QmHKlgpzDXKQYHB9WOlCeffLIRv/nwww/LfffdJyeeeKKR+/Em4SXwxBNPyM033yyzZs2qODlsnjjoSJ793Vx/J8SEkzXkZUI/mf5IGCo4+yOc4kcJv956660ybdo02X777cN7H40z3njjDXn++edl//331zibp5iQwCuvvCKrrbaaXHLJJUaggv3dXH9PAirYftHbj1BBqMhNTQWg4g9/+IO1d4a1epOBA6H1k046SW655RYDd+MtdCTAmoroTsIpdzpdytOpD1ynwpIGO0V+OwWhQsft5vscQkV++zsjFeHaFvIy4f8YqWCkgpEKTb/KSIWm4AyeRqgI53iipB/p5MPJ2pSTNx1pIlQQKggVmk6OUKEpOIOnESrCOTpCBaeUurtn2KJmzv5IGCpMVNs6laCR73fbbbepSn/WVBj02im/FaeUxgsVjWxfkojE5FGehApCRaRIRZo6RRCoUDtxTl9UavWJMnuoXzrGieDzrpZ+wead6jdzp8hQf4dYX9U8GKlIOVFYj0eoIFT4FRZyUBbv3ldMfyQMFSYKY0znzNJ6vyCFmk54sOhBWrtapN8iifLnUpCmvvbi1uA+RxqhYri7IPPaehQoRTrKW7GXLmTJqjCvTXoiXzjSU4U+memPeKGC9ozy9IM0QgWhIlKkIk1GJjJUyBRZPFCEjCBHHFABCOgaWCy9vSKzZ0+Q6dN7ZeLsIekvhk+ktXm6LBJnRGWU31sPPXK9RTJt/goVefG6jgAaZi6WRYsmyPwVPVL1xjZUtM0rPsPEiTJtyhxCxbvvKtVYeeVq54LP09QfkgjX8/0IFYQKl3dgp8hvpwgKFbXSH81zJ8g0sbx7Z8kZG4hUIEIyVeZIf0tXKUIiUiiIVRcyyfL7rTI4w0rPSGVEpdbv8bjl6wEGSlEYr+soqBicUYQXr6P0fefA1OIzDPn8PgiF1eE3jFTkt78TmsK1rSnoZaSCkYrGjVQ4nNxIWmSBFJr6pN1r9O5yinFFKlS6ouy0hxxQ0SSTLcZRx7T5KiVTTm94/L4IFXb6w3qP1kGZYdWFDBWqrxMMKqbIlLlzpaXfimQw/aGagbMjODvCzcZhZ0c4z8/jIJdQQaggVJRG+HahJhxu08zxRgo1R4OEcoTBEUzwh4pSwWnzSHTD6zrBoGKGMFJR6UIIFYQKQsWIBLiipiWLPJJh3sk36PsFSX/EGYFPOlIxUgsh5ToLf6goyNS5vVatxEgdhtd1gkJFP2sqKlSGUEGoIFT4QMWSJUsqtj5funSpjB07tsr2vv/+++qzMWPGxPYdLsT7UZ5OhRpNz/z05a677pKFCxdynYo4ySnj1wL4Yefazs7OijehPQtvy/36H/1DOFueV3ky/cH0R0OlP+L0kXFEKuJ8Hq1rlWeY2Gc7IhxaF0zXSSzUDFfMx0gMIzFRIzGECkIFoULTD+YCKjTfPSunESoIFU5dJTQlD02ECkIFoULTQxIqNAVn8DRCBaGCUDEiARM1hYQKQgWhQtPJESo0BWfwNEIFoYJQQahQEtCd+8vwVvLhLWcnNUG+Qe+XxdkfBv1rQ96KUEGoIFQYhorly5dXzP5I0wZREIXXcri6wIHr8f3iNTJpkmeQDcXi9KyMVMQpzWSuxQ3F8tvf6R/Cta0p/8ddShNOf6TJ6ea9ExIqknHMWb4qoSKc4/GL9NKeUZ5+kR/WVCQMFWlKDyQBFWl6P6Y/suz+k3l2pj/idYJp6u95t2dZfT9CBaFCu34FokuTkSFUJOOYs3xVQgWhwm9kHbRmK6tO3vT7ESoIFYQKTa/JmgpNwRk8jVBBqCBUjEjAxCCQUEGoIFRoOjlChabgDJ5GqCBUECoIFUoCujM8/AqNTJCa6XAT71fUF6Y/DHrrjNyKUEGoIFQYhgpOKS0KPCmIYbV0vEZtNHnqzv5Y0N0tzR0d4thhPJDLZKQikJjq+iPO/jDX/5KoOaD9zF77cUppwukPdgpznUIHKhYUmmTm4omySKbIUH84sKgLVCwoSOvgDOlv6Sr+3REAhaxNwwrz2qTH+Vuvz+rq/pO5OaHCXP8jVISTNeSVR//AmoqEoYLplnAdLUr6KtXpj/JuoCO7gA53F6RrYLH09orMnj1Bpk/vlYmzh8qgMNzdKs3TFykNnTZ/hfRMsv6nBlR4/ta+58SJMm3KnCJUeH2Ga85cLIusW4238GpAHDuVWt81TbYe0O+zZJgg8lWZ/jDX/5KACtrP7LUfoYJQoZ36gejS1OnTDBULCq0yOKNfOqRbWrtapN8iBIDAVJmjog5Nfe2yokekUBDpUfTgOGyQABT4RSocvy3fc6gU3bDO9/rMvmbnwNSqZyz/ftywDA+Pk3HqEUrv4vgssvdP6AKEiuw5JacqpMm+EJqC6RKhglBBqNB0aGHSH0izqAF/MexgAQSgoiDz2nqko+z0hyqhohzdsOIEdgSjFlRU/Vaku7VLWvp7ZFI51eH12QiodA40Vz1jObLhjJY47lWOoGjKMOnTCBXBHIHdDlEihXS64WSdtkFZXO1HqCBUECo0PVs4qLBH9yM384OKBcWwhUwKEKnw+q12pMJRpjESlVhQBh6vzzRFmPhphIpwjo5Q0bgbMhIqLAmE3Wwsr2TIcGEGppR6RB38oKJcJ2HVREyc0KlSJr41Fc7fhqmpQNFn2zxpbZ5uVVU4IiNeUQlGKjxtD+1LeJtMiMkfxHD2R8KRijxW9zohJk3vpzP7I8pQOUykIsp9eK6+BDj7I95IRZr6e1wj67Tas6y+H6GCUBEp/ZEmI0Oo0He+eT2TUEGocOq2X2QkTfYss1CxwjoYPk9u8StWL8dr1EaTZ5pnf+TVaaf9vVhTYa7/JeEEaT+z134s1Ew4UsFOYa5TECrS7uLNPx+hwlz/I1SEk3Vea3AIFYSKSOmPNEETocK80077HQkV4RydX3ogTf2dEBOubU1BDKGCUEGo0PSMLNTUFJzB0wgV4RwPoSJ/szFMlzcQKggVhApNJ0eo0BScwdMIFYSKMIWajMRE1xdCBaGCUKHp5AgVmoIzeBqhIrqTMD3S5f2yPXGgacmSJRWzP5YuXSpjx46t6vbvv/+++mzMmDGxfYcL8X6Up1OhRtMzP3256667ZOHChdYilNYmGgYOQoUBIUe8BdroggsukM7Ozoor0Z6Ft+V+/Y/+IZwtz6s8GalgpIKRCk3HRajQFJzB0xipYKSC6Y8RCZhI7xAqCBWECk0nR6jQFJzB0wgVhApCBaFCSWC0KmTd73BdE6TmVGLez5xR45RSg946I7ciVJjrf1CJsPsxcbZJ/mabMFLBSIU2wKUN0ggVGfH0Bh+TUEGoYKSCkQpGKt59V8kgLPWnzcnrvEOUkYsuVCzo7pbmjg5x7PgdyO0x/RFITHX9EaGCUEGoMAwVy5cvr5j9wQ1V4u2ElKc5eepsKLag0CQzF0+0tvueIkP94cCCUFFXXgh0c24oZq7/JTGIoP3MXvtxl9KE0x/sFOY6hQ5UBPJMNX5UN6gY7pbCvDbp6XDEVrw+i/JyOTmXUGGu/xEqwska8sqjf2BNRcJQwULNcB2tHukPXf+ZJFQMd7dK8/RF6tGmzV8hPZOs/7HAobV5uiyaOFGmTZlThAqvzxYUpHXmYlm0aILMHxovM3GOTJTZQ/3SMVSQpsm91sVK/waXWL+v+kxXKCk7j+kPc/0vCaig/cxe+xEqCBUs1NR0hElCRfmRAAiDM6TfAogFhVYZnFEEg9E+AyRUfS8WkHS1SKfMLF5j3LAMD4+TcRZUlK/r+ExTJKk7jVCRPafkVCJCRfbaj1BBqCBUaLrCRKHCjkAgpjB7yIIKke7WLmnp75FJ5VSH12eKEhxQ0SQqMFEMeciKGYPFaIdXBMT5maZM0nYaoSJ7TolQke0lFQgVhApChaYnTBIqFhQKYq03LpPiilSUyi9GohILpHiLSY5IxchnmiJJ3WmECkKFUymjpFeZ3gmmS4QKQgWhQtMVJgkV5ZoKq35i4oRO6UdRRZiailLKpHyOHfFom8dIhSUL3QX06JTyt1gTIyPx9gfO/kgYKvJY3evshGl6v4aZ/aEJQY14Gmd/BBtd2rrhB01p6u9JRA74ftH1hVBBqNAetUF0aeqEhIpGxIbR35lQEd1JpHUQQagI17am7DXTHwlDBauXwym+30hpNHnqrqip64qTTH/oPhPPq5QAayrM9b8knDztZ/baj1BBqIgUqUhTpydUECncEiBUZM8pscYh3hoH0/IkVBAqCBWavpiRCk3BGTyNUEGocKpblEgoIzHBdIlQQaggVGg6OUKFpuAMnkaoCOYIghZqpikySScfrm0hLxPtR6ggVBAqNJ0coUJTcAZPI1SEczwcyXPKrLt7hp1+zdkfCUNFmmZHJEH2aXo/zv4w6K0zcivO/ogXKtLU3/Nuz7L6foQKQkWkSEWajAyhIiOe3uBjEioIFWFqKtJkzzILFSusw3R1KO+X7eretLYfZ38Y9NYZuRXTH/FChYmcfFrtSxJOPo/yZE1FwpGKPCpNWjs9oSIjnt7gYxIqCBVhIhW019H1hVBBqIiU/khTJyRUGPTWGbkVoSK6k0jrIIKRg3BtC3mZsNeECkIFoULTQXL2h6bgDJ5GqAjneDj7g7M/3N0z9OwP1lQURRhWcLbg2QnT0wl1IxULuruluaNDSruDB3Z5hIrAoqrbDwkVhAqmP0YkwEiFJYuVV2anYKcI1il0oGJBoUlmLp4oi2SKDPWHA4uoUDHcXZB5bT3SEZZmDLjoND9bmNcnVNB+0n4Gs59xpZOalixZUjH7Y+nSpTJ27Niqfvv++++rz8aMGRPbd7gQ70d5OhVqND3z05e77rpLFi5cKD09PWH8jvZvw0AFnHTXwGLp7V0k0+avkJ5JIl6fWR9Ka/N0C3ImyuyhfgUc+N3Uub2yaJEUz22u/o39ElW/Ld1HwYt0S2Fem/RYFx25t8js2RNk+vRemTh7SPpLhBP02WRBQVpnLraebYLMX9Ej1u1SdaCNLrjgAuns7Kx4Ltqz8Lbcr//RP4Sz5XmVJ2sqSqaG6Y/wUSGIzkQ4zekNsrpL6XB3q0yVOdLfNk9au1qk36KK8mctXdI6OEM59AWFVhmcYcGEBQDO33W19EuPWA7c+l3nwNSq34xARas4f4trlqMOFVBReh7r3k197WLxgBQKYgFZEQu8ntfr2RRUlJ49VTRRehhGKhipYKTCcKSCNRVFgRMqCBVhnWLYSEUx1bFACq2DMsNKtYid/ig7e+uj1i5p6ceI3/pdycm7oaB9oFkm95aedtp8CwhG4gPeAFFKs7giFep5hmwoGHJBhZ2aGXneIStVVHVfQkWF2qQJsvFgTB9X9mrWwCVfA8dIBSMV2kDFSMWjctJJJ8ktt9ziyyMY+asIAlIX5UhFtbP3jlRU/q7djlR41GLUikrUjF7UhIrq5y0/m/O+hApCBQdlSgfCAlza7KfOO3hBGqGCUEGo8EUC7x+EjVQU6yIqayXctQ61aioqfocUiqq7kIo6iGLaohpUkKJoQohh4kSZNmVOuabCL1Lhft6RZ3Pcl1BBqCBUECocEyoIFYQKQoUhqEjrTA/N18/EaaypYE2FU1GZ/jCQ/li+fHnF7A9uqBJvJ6Q8zckzzRuK5WWKZiZIwvGQ3FDMXP+LK3zu1DHaz+y1H3cpTThSwU5hrlOkGSqy5ozz8ryECnP9j1ARTtaQVx79A9MfCUMFq8HDdbQo4Umdxa+iOM8wNRVR7sNz9SXA9Ie5/pcEVNB+Zq/9CBWECtZUaPosQoWm4AyeRqjInlNyqgehInvtR6ggVBAqNJ0coUJTcAZPI1RkzykRKrK9bhKhglBBqNB0coQKTcEZPI1QQajg7I8RCZiI/BAqCBWECk0nR6jQFJzB0wgVhApChWGo4JTSosCTWqY7j9W9zk6apvfj7A+D3jojt+Lsj3ihIk39PYnCUL5fdH3hlNKEIxVU0uhKGhRiCBUZ8fQGH5NQYa7/0cmHkzXklUf/wPRHwlBhIofFwqZipIlTSg1664zciumPcI4uypTuJKCC9jN77UeoIFRop34gujR1ekJFRjy9wcckVGTPKXGQlFw63oS9JlQQKggVmk6OhZqagjN4GqGCUMFCTcOFmiusg2SYbTJk+0VLfyzo7pbmjg7x2El8VPdHqDBIB5q3IlQQKggVhAolgaRmY5gI/9DJ16f9dNIfCwpNMnPxRGsb8Sky1B8OLHIPFcPdUpjXprZKz+pBqCBUECoMQwWnlBYFnhTE5LG619lJ0/R+WZ/9gZ1MuwYWS2/vIpk2f4X0TBIZ7m6V5umLlMjtz2RBQZom91qfTJTZQ/2ifH7VZ8PSXZgnbT1tMq+1S1r6Z8ig+rcFThYstDZPt0Cq8vzWmYtl0aIJMn9ovMzE9xMnyrQpczIPFT09PXLuuedWcBH7u8jKK4cDDggwTf0dzxP2HfwKUfl+4XTCS56cUloyNTQy4Tto2oxM9qGiVabKHOlvmyetXS3SD6qwDwsaWgdnSL9FEAsKrTI4AzAxLMPD42ScBRW1P+sUmdonMqddBrpEeqxrln8rFlzY9/G6/tDIPbMcqSBUVLaerq1LW38nVIQDAFPtx0LNhKGC6ZZwiu83khhNnjrpjyjOMu70ByIV89p6LFhYIIXWQZmBdEw5qmDFJWYPKaiwwhelSIMjeuH1mQUKhcHxMr70kgOCVIZIt4pc9IiFF1IoFEEDkY4itDi+Z/qjSj2i6GcSTpD2xZx9YfsFkzWhglChnfqB6NJk1LIPFa3S1dIvPc0jEYQFRa8vkzwjFSNQMBKpcIACoGDqgIzvHC8DM62/5wBYHFGNBolU9Pb2yqxZs4ykP9LUH+gEgzlBp2Kw/cLJzDP9wdkfRZXSDQly5PJf2WSTTUKN6HRl7Qcx2YeKgkyd22vVNYzUOpRrKqz6hokTOospkaCRCkQimvqkfUW79Km/EZ2wjlo1FaX0Svn7nNRUECriS3/Q6UZ3unmHGEYqGKnQBio/J296pJQHqCimP6IkZXiuUwKc/UEn6NQHDgKTHwQSKggVhApNP5xcTYXmA/G0KgkQKggVhIoRCZiINBEqCBWECk1nHDdUaD4GTxtFAoQKQgWhwjBULFmypGJFzaVLl8rYsWOruun777+vPhszZkxs3+FCvB/l6VSo0fTMT1/uuusuWbhwoVXX2GPE0RIqjIg50k3QRhdccIF0dlpTax0H7Vl4W+7X/+gfwtnyvMqTkQpGKhip0HRbhApNwRk8jZEKRioYqTAcqeDsj6LAdWcksPAn+cIfp1HI8zoVBn1tw9yKUEGoIFQQKujk331XySDsErQ4x0QhTlAnr/MOUSAt67M/GsbTG3xRQgWhglBBqCBUECo8gcoPmggVBr11Rm5FqCBUECoIFYQKQgWhIiNOO+2PSaggVBAqDEMFdylNtqaCu97Fa9RGk2fWNxRLu4PO4vMBKrihWGXL6daP4Sq0Z+bsWRLpYxPtx11KS/1Nt6P51QCYaESnyWjk+xEqsuj2k31mQgWdYJhIRSPbz7gghlNKE4aKRi6cjEtJgxaGsqYiWQedxasz/REvVNCeUZ5+kEaoIFRoT6f1K5wkVGTRDefrmQkVdIJ+TjDooMW0Pcvq/QgVhApChaYf5eJXmoIzeBqhglBBqBiRgIlIE6GCUEGo0HRyhApNwRk8jVBBqCBUECqUBJIqnDRBagyn1af9WFNh0Ftn5FaECkIFocIwVHBKaVHgSUEMq4njNWqcUpoRb56Sx+TsD3P9L4kaANrP7LUfp5QmnP5gpzDXKTilNCWePEWPQagw1/8IFeFkDXnl0T+wpiJhqGC6JVxH81v3gxuKpchjZ+BRmP4w1/+SgAraz+y1H6GCUKGd+oHo0tTpWVORAS9v+BEJFdlzSqxJSy4db8JeEyoIFYQKTUfH2R+agjN4GqGCUMFCTcOFmiusg2SYbTJk+xXbj5EKg946I7ciVBAqCBWECiWBpGZjmAj/0MnXp/0IFRnx9AYfk1BBqCBUGIYKTiktCjwpiMljda+zk6bp/Tj7w6C3zsitOPsjXqhIU3+HCq68Mt8vDDSZaD9OKU24psJEI6bVyZvu9ICKvr4+ufDCC424vOHhYZkxY4bceOONRu7Hm4SXANroqquuknPPPbfiZA4iwjtkCJD2jBDjBzEs1EwYKphuibcTjibPhx56SI499tiq0YtdNtTU1FTllUb7Dj9+//33ZcyYMZ7n4dzVV19dttlmm4rvo9zvnXfekVVXXTXUczrv9+abb8pzzz0nH/nIR+SVV16RZcuWyWabbSZe746bRL2f+0H95FmP+99sQ04AACAASURBVB100EFy+OGHG4EK9ndz/T2JQQvbL3r7ESoIFdqpH4iOnTB6J3R6u6jyxMj8oosukvPPP19uueUWwb+//vWve4aJ2X7hR+tR1lGhEwzXV6if2dRPQgWhglBh6YBXbjaLRo1QURk7iQpp7kgMoeK/sskmm1RF0pJKJ7H9woFYGvSTUEGoIFQQKugkHBLQdZBZhFBCEyEUEtDVea/zCBWECm2FohFNX3iSkQo6ibidRJzpOUJM/vWTUEGoIFQwUsFIBSMVSgJpCJ8TYuKNHJiWZ9OSJUsqVtRcunSpjB07tsrIoAoeh1clvO53uB7vVz2zgPL01jPqi3//e+KJJ+TKK6+Us846S+666y558skn5eijj/bst5SnvzzdhnC0vkl5Up7UFxFGKhipYKSCkQpGKhipYKTCkgALQ6MXhhIqCBWECkIFoYJQQaggVMSyQimhglBBqCBUECoIFYQKQgWhIuy67+g1DG9FD2+ZLvzh/YIXbnH2RyUfsb+zvzs1goWoya8zwkgFIxWMVDBSwUgFIxWMVHDQGU+kgruUFq1JnIt/OC00N+CJd6REeY4uz8cee0wuvvhimTVrlmAreEQuCoVCzRVDKU/qZ5iRPPWF+uKnL9ylNOFIBTshO6FfJ4wTQgkVlUEX9j/2P5P9zx3y80u35FE/mf5IGCqY043XqFGeo8uTNRWsqUgy8sr+R3vmB2mECkKFduqHha9cpjvsyIxOiU7JzymxMDu5dLyJ/keoIFQQKlioyUJNFmr61pZxEJG+QUQaoZ5QQaggVBAqCBWECkKFJQETI/m8R2IIFYQKQgWhglBBqCBUECo4pVRn8as8Vts6PQLfL96cddbkydkflXyUtfYLG87m+zV2f0+jvnBKacKRCnZ6dvowhWlR9YVQQaiABLjuTvj6B8gtav9Lo5M3Pehk+iNhqGCOLl6ooDw5pTQMpFFf2P+oLyMSMNEfCBWECu1RDURnQknzXtgU5/txnYrKsSL1k1BBqCBU+BYM6Yb26ATDhwT9VoSj0U6X0SZUECqSTH+wv6erv4dNt5hoP0YqGKlgpMLSAa+i3yxCKKGCUEGoeFcpgU4hvwmnG2dkklDhlgDD56EVn5GD5LfuzXKnJ1QQKggVhIp6DpI4+yPhSAWrieMNF1Ke3KU0TI6c+sL+R30ZkYCJ/kCoIFRESn+YUFKnUeD9CBV0EmadBPsfp+iGSSexpiJhqGCOLt6REuXJKaVhoIL6wv5HfRmRgIn+QKggVESKVJhQ0izXOJgupGJNBWsqWFPBmoq61lSssA4a7eTCW3S6HCmZHCkRKggVhApCBaFik02q5oXorkXB2RGcHREmOpA3fSFUECoIFYQKQgWhosIS6gIVLsLISGNHRggVhApCBaGCUEGoIFQEqG0hNPkv6EOoIFQQKggVdYWKJUuWVNRULF26VMaOHVuVjnj//ffVZ2PGjIntO1yI96M8nQo1mp5RX/z73xNPPCG9vb3yjW98Q+6//3556aWX5Nhjj/Xst5Snvzzdxo76Sf8QRicaUV84+yPACJnpiPwsYx2m3iIrkZGhoSH529/+JosXL5Z//etfgtrrnXfeWfD5Cy+8INttt51sueWW8qlPfUr9cR5MlzV2uiyP/YH2ur72mlBBqOCUUksH6hku1HXy//nPf+SKK66Q9957Tz760Y9Ka2urgoeVVlqpwlcgGnjPPffIvffeKzhnypQpstdee6nfECoIFU5lyVvhMqHJfDqQUEGoIFRkECp+/etfy913361SG5/85CerUpK1PnjjjTfk0ksvVWnHzs5Oef7552UT1jRViIsj3WxCtt2IbL/6th+hglBBqMgYVJx99tmy7bbbyoEHHhgYJtw/fPrpp+XEE0+UH//4x+paYUZ0NNr1Ndq6kS063dHXI2Lkzr8QPIidIFQQKggVGYKKSy65RD7ykY/IpEmTtIHCeSLA4swzz5QPfvCDsYzWGT7nOjFBHE8QwKGTj8fJm4ZQbiiWMFRwA6x4c9aNLM+LLrpIRRX222+/WIDCvsgXvvAFueGGG4xARSO3HwTsVbsTJfJDedK+ODuuH9Sb0BdCBaEiUqTChJI6O02j3m/+/PmCeogjjjgiVqDAxZ566im58sor5fTTTy9fW9fRpcGoUV+S23agUfsf+0NwIGb6I2GoYHV9vCOJRpVne3u7/O53v6s5SyUqaZx//vmy4447ymc+8xl1qaSMaKO2H+UZ3CmZDtfzfvH2d0IFoULbgTDnGd5Q+o3kvZzub37zG1l99dUFYJHU8frrr8tpp50mv/jFLwgV73JFxixOsQ5Sp6HT/wjZ4foDoYJQQaioketOCzQdffTR0t3dLeutt15STKGu+8Mf/lAmT56sFs7iyDo8MKZFX+gEwzlBRioYqdA2eOz04Q0lyb6+1fyPPvqoWleiq6srUaDAxW+77TbB/U444QTtPkZ9qa++RB2ts/3Yfm5DE3aAwUgFIxXaDoSQljykoY5itdVWkwMOOMAfKhYUpGly78jvps2XFT3Bp56+9tprcs4558i5556rrRN0SnRKUZ0SIwfxRg5My5OzPxKGClZLx1uo2Wjy/NnPfqb27vjsZz8bCCoK0iM2RywoNElf+4ryv/0vIILppQAZeyMkToGslJofNDWafiYdGaE8s2c/CRWECu1RKUTHTp9spz/11FPlqKOOku23396fCaxIhRMqZLhbCvPapKdjnP+5pV8ceeSRctZZZ8nmm2+uPiFUECqcEmB/T7a/5wHSmP5IGCo4hS7eTphXeb755puCbcuxXfmrr76q/h9/MDJGkeaHP/xhfzCIASqOP/54ee6552SttdZSm5N96EMfUn/bf9Zdd91IEJrX9rMbh+/H/u7sqH6RrTzqC6GCUEEnUWNEnlTNCLYjf+aZZ8rg8PjjjwvqGbbZZhu1XDbSHYCIrbfeWn7605/K3nvvLbvuumtoqNBJfxx++OHS29srb731ltrR9Nlnn1XPiv/HfiHYERVRDDdw2Mt8N6IRNZ2z5v2yXXOQ9/YjVBAqCBUJQgWAwY464G/8G2tOYP8OQAPgATBh7xTqHrn09PTIFltsIfvvv38gqIhSqPnOO+8IoAI1FbXgAKt6PvnkkxXAAehYtmyZek4AB/7GO+Fv9w6oeRyZ5d1J8P0IMWFSoYQKQgWhIgaogLO14eGxxx5T8ICRvQ0NcLL4s9VWW8maa65Zc2VMt9O9/fbb1XWnTZvmDxURfzE8PCyXX365mgESdhoZ0jeACzdwvPTSS+qd7fQJgGqHHXYo12wknUMmxDAd0ejpCNNQSKggVIR2IKaVNG33W7JkiQwNDSkHin0z4PTffvttBQ2ACDhQ/I1ohPsImx5AWgTrRlx11VURkcH/9Dlz5sgaa6whBx98sLZOuN9v+fLlCjbwB5A1MDCgakZQt+Gs1dhss83UvxG9GTNmTMXDhgWctOkLnkf3HcLqCyFNX9ZJpTtrjfLzej/O/kgYKlgtHe9IyaQ8YdDvu+8+wRLWAAg7ErH++uurAkY4QDuN4dw6XNeBQBW93g+RA6Qlxo0LPovDHyGqf/H9739fvvKVr6jIgu47+DlB+/0wZRV1GnatBoDDruFAysQJHPg3UikAnrCQZlJfarVfklDB98uufcmrvhAqCBXaDiRPncKuFUDaAtEH/G0b7I997GMKIOwUBhajStrpOp3nP/7xD7nlllvkzDPP1GGFQOf09/fLXXfdJZjCWm8niOJQAIazQBT/v8EGG5RhA7UbgB8AB1IqtfaqoNOl03V2gKDQGwZedW1Bnuyns/8x/ZEwVDCnG69Ri0OecFCABkQfUEeAvxFyd9c/YHQcx/3CGLVa9/vud7+r1qsA4CRxoGYDe3/YhZW6htLPaEeRJ+oz7DSKDR2IcCCCgciGs3YD/8a02Cj3C7tGR17D2Uwn6adUkuwPadVPQgWhQnvUnXYjaq/9YIODHYHAKNdZOIn/xyjY60iLU0Idx49+9KPyLqJxgsXcuXOlqalJDjnkkPJl0wgVtYzoiy++qODBBg67hmOllVYSpKr+3//7fxXpFGzMlqX3Q6Nw19BKjWf7hV+YzpS9JlQQKrQNrCklDTJSgtO1Cyfxt3PtB6QuUAPR3NysYALOxj6yNJJ48MEH5dprr5VZs2bFxhQ33nijKjo95ZRTKq6ZB6ONIlcsJmbPTLFhA8WjiEI5oxuIcgRZayNL+lILRnTbNk39Xfcd2H7J701DqCBUZAoqAA92BMK5/sMHPvABBQwonLSjEFFD+Wk0oqg3+PnPfx7LrqU33XSTKj496aSTqiAlz0Z76dKlCkABGZiFYsMGPgds2H8AowAP51obdErJO6Ugg4g86yfeP8vvR6ggVGgrcNJO17n2g71wFLbmRjjbBgd7GieKJxtlZPbAAw/IFVdcIccdd5xMmDAhdNQCq2Ved911AvkedNBBVQtUZd2o6TolwCpqNey1Nuy6DdRy2LNRnFNfAR/uIy3psiw7Jd32CxJ9JBQmD4WECkJFKqACEQikLLBwFAAC9Q/OtR/s1ScRkXCv0tiIThBLfWNPkFVWWUUOO+wwaWlp8YUL1B5ghgdqKFCYuc8++7CQcWX/QmI4IhSEIqIBvbSnwiJqZKdQ7HQKZqLsuOOOsa21QSeYvBMkxMQbGWmyjPkKp1ARAhw7dmyVgbK3QnYvTIMf6n6Hc3m/yoV+8i5P5LNhmO11CfA3/o3iOWf1PiACRXbug/pSqS8PPfSQLFy4UMHYnnvuqUL3kNvGG2+s9hPBKBsyA0xg0ak99thDDjjggLJYKU/9/rdixQqVPsEfAAb+hi4D+FCfgYJg/EF0Y9NNN1V/2xE1p17TfkoVhNnyoX7q66fXKMOEPBmpYKQisUjFK6+8okZ39vRN/P3888+rokln/QOmctrGliMzvZEZUhkoSkSUByABOeIPYA0ODaNnrxU+Ga73j1Q4jXNQ/XTWatjgDPBAezgX9sL/o30wLTatUwQ5ko93JJ93eRIqCBWxQIUND3bxJAAC0xSdhZP2JlO6+d6kazi8yJ5ONxmn65a1rk4EdfJpud/LL79cTqU4VxNF2gSROvxxzkzB5zg4pbSyBRtFX8KCZhr6A6GCUBEKKtwzLx555BEVfXCu/WBvnLXOOuuEHn2loVPkfSTB90vfyBPRJdQV2TNR7L8B5oAMRPecEQ5EPAjZ4ddqoH3Ri4TWAlsveRIqCBU1oQK5YSwchaiDHYnAPhh20ST+xqqFu+yyS8XaDxApRxLhDR6dRHiZ5d1J2KuI2sBhF4yiNgmQAXDHKqt2wWjUtTbyLk++H6GCI11X3DaJTgEDhWl0MFjOtR8QegU44A82s0IEwj3zgukBpgd0ag7Sko7IYngZskPBHUD/4YcfLv8//h11rY0k7IvuAIOQnU3I5oZiCUcq0rahEdIX9o6b9sqTqFi3ow8AB3vzrDXXXHPUiANEl7b3i9tJ8P3ihSbKM1l5on+jINRea8PenA0RD7tWA7NQ7JSKe60NP6hg+yXbfjZs64JYGtqPUJFjqEDIFJEHGBhMOcTfUDrkZzHjwv4b9RBhcmbOUSaNDI1MmEgF9aU++oJ+b9dp2Gtt2NNgARZ2gagNHBhYeC0fwParT/sF7WOpgAprrnXFOhUMZ8erNCbkifSFnbbAugUYlaAOAptkOTfOgqGIc+EohiezGZ5koSZrfuxBBMy/DRv21FfMSgFwwFa4p7+uuuqq6jOmr0YkoBtVyKv9ZKFmwpGKuKECIwWMNPDHTl9g9oUND6gK32GHHVQkwrnQjq7i+5Fv3O/H+yVfSEWoIFQEiUwCLNyzUbD5HNbVcE99xWeowYo7/Uj7kr1BLqEixVBhL13tLJ7EFDNEHJzrPzjzouyE2euEdPJ08kGcfFV4wPqgHv0dNsgNG4hyYAEv56q4dpRjtLU2OIjI3yCCUJECqHCu/YC0Bf4AJAAL7o2zUDxZywDlNZxGp0unmyWnG2eKMUtOF3vLYCBkL+plgwdqM5xrbdjgse666/oWgtcDmhq1/XT6GNepqBPZO5UU6QukLRBGtFMYzrUf7IWjEI3w2icgS0YmLiUlVBAqdHSJkJ2Omh/ABkDDvXQ5bJk9I8W5uJe91gbbLx3tFzZ1ztkfCUUqUAAFeMB+DNjYCdEHQARChAAG0LqdxnCTcdhG5GyM5Jwuq93jTSdRnpSnba+wpoY99dUGDsDH//73vzJsYHG9CRMmqBV7nXZS10b6Dcqon9H1MzaogBN96623QlUF48dYtXHDDTcMdZ6uQiV5PwDD4OBguYgSoT97p02seAcSxx9ABQ7dd/DrFPWQJzq8O6qS1Pux0wfr9DDOGAX66QvlGUyetoFKmzxRpG3bFKcRTar/mbAv8CP2+hr//ve/BZFc/BsbFEKnbcDA9NeddtpJVllllQr/ofvuSfqHWnu3RJEn2j2M3cX7mejvsdVUPProo/KlL31JzTwIc2A7ZigNRu4mjvfee69qSek47ot0xkorrSSoecDW8XbtQ1L3q/XMpu+HKMz48eNl1qxZsXRsP6PNHKu/E7z88svVuiTYUvuYY45RRb3ckKqyx+g6nrTp51//+lf52te+FtruwubC9oa1u6bti/N+0Odly5ZV/MHAzQuqdG16Pd8vzDNjV+KWlpZQdtdUOilWqIAxczsXP0Hde++9cscdd8jpp5/u91N+n0IJACZ7e3tDKbeuQTfVKZxizhLEzJs3T9AHv/KVr0h7e7v885//lF/+8pey8cYby3HHHSfrr79+lQZl6f3CTldsBH0BVNx44420uym0jUk+ko7dNdUfCBVJtnwDXFtHuQkV8W5l/ac//UmuvPJK2X333eWrX/2q2nLeefz5z39WsLHnnnsq4MgqNBEqqg0KoaIBjKzHK+rYXUJFY+pK5t5aR7kJFfFABSIRV1xxhWy00UYKJrCC6mhHX19fRSTDlJEhxCRXQ0WoyJzJjOWBdeyuqf7OSEUsTdy4F9FRbkJFNKhAygKRB+TFEXn46Ec/GkoBL7vsMoEzwrnNzc2xLt2etpqDvKd3CBWhVD83P9axu8agwto3omLvD93qULzknDlzMp3bG+5ulebpi0qKN1FmD/VLxzjrnwsKUpAe6ZlU+kr9e4aMn9ksA50rip9bnzX1tcvQ+JmOa4hMnD0k/bgIvp/c61DqaTJ/RY/Yl8yqtqPde3p65Nxzz614BV1w8HNKuvqJh9MJn6fpftjj5aqrrpIHHnhARSZ23XVXbbXB/jCot8CspUKhINtuuy3bryQBXd3F6ab1ZdGiRfL73/8+o3Z3gRSaJkvRKo7Yw0o7XLShc2SqdLX0j9hg6wz8zuuzERueX/urY3dN6WdsU0rzAhVlJXWChCdUADKsTtE6KDP6W6SrqU/aLUho9lB01WdqXkPbL6TiRB3lzpLRNu0kat1v7ty58rvf/U7BxP777x9b22PWEuACM5YwU8ReC0C3jQiF/6fSUe4jKXlmGSoqoMCyj62DM9QArBYsBIUK9+/yaH917K4xqIhrl1K8ZNZnf7gJedr8kShEdaSiGLmwz7F/O1q0I6+RCs7+qHQhug7EKzyJmVGom9hvv/3kqKOOig0m3Be65557VP/dcccdK4o9w0Z3/KAi7+kI0++X6fTHcLe0Nk+XReKICpciEO6Icds876jE6JGKymhznuxvqtMfhIoR81pByFD4rhbpBzmMGmWwoxUdgkyJF2W7SXlBoUn62kvAkpibMHNhHeWO0+nab6l7zbQ6QaQ44OTHjRunah+wsqCJY/78+SpyMWXKFLXuDKEiODB6QWHS+plpqLCFU4ILK99sJFKRB/urY3dN6ScLNR02ww0VhXlt0oN6CCdgqEyGEwrCQ4V1BSuXWEyX5KGmgpGK4I7HD2L+8Y9/yE033aQWrgJMYHGfehyo3ViwYIF6hs997nMVj6ALcKaMmvNhTUcOTN8vy1BRYUcdNjb59Ef27S+hYhSrmKbFrypTF5WFlOgA5TrLafNlxUjVZqmuYiRS4SwUEvu3rmiHutdAp+M69XAd0e+po9x0StVFo9jvABGCgYEBtVAV0hD1PrBqH6Ilw8PDCi7s1XLZftFm77jbNYo8swwVxcGVf6EmbGhFAXzJplbYa6/PIOic2l8du2sK6hmpqLflzvj9dZQ7ihE1PRI0cb+rr75abr75ZuW499lnn9RpBDZ9AlxgC2s8I/ZcwBE2NWLKqDFS4a9CaRrM+T8tf+GWgI7dNdX/CBXU10gS0FFuQkXRISO9gOjEIYccIoceemikdjBxMnbctes8jj32WFlnnXWqbuuX3jEBaYQKf20gVPjLKM2/0LG7xqBiyZIlFetUYDtaTC9zH8jx4sBoxes7hEhhcKZPnx6qLR5++GG577775MQTTwx1Hn+cDgk88cQTcsMNN8iZZ55Z8UB++jKaLtX6Dp/r6mea7ociTEwP3XnnnVWqY9VVV01HYwZ8ittvv10uvfRS+cxnPiMHHXRQ4HbPS/ulST9hP3/961/T7gbU3bz8TMfumup/sUUqbr31Vpk2bZpsv/32odoNeVts3xvn3PtQD8AfR5IAtiPG9ruXXHJJxXV0oxF5HukCvLGaJaAd601suummkWRf75N/+9vfynXXXafeZdKkYslxntsvje/3m9/8Rr7zne/Q7ta7Mxi+v47dxSOaiBTGChV/+MMf1OqKYQ6EcU466SS55ZZbwpzG36ZEAjphOF3gMNUpnKKNoxO+/PLLKs3x3HPPqW2qP/axj6Wk9aI/xjvvvKPe7cEHH1T1FjvttJO6KLdar5Strs77QRqgAhvK0e5G1+UsXUHH7pqyn4SKLGlSCp9VR7l1DaypThEnVCAliF1C4XCxS2heDyuNquAC6SnUW7S0tHi+ahyQ5rywn9PN+/0IFXntUaO/l47dNWU/CRWNqZOxvbWOcjcCVGA/hl/96lcKJtrb22OTd9ovhJ1TARdI7SAtsv7661c8ct6dvOn3I1SkvUck83w6dpdQkUxb8KoxS0BHufMMFX/5y1+UU919990rlruOWeypvxyiM4jSIDoDsLIP00437/cjVKS+KyTygDp21xhUxLVL6W233abm2jO3l4gOpfaiOhvbRIGKtGzw5X6Hf/3rX3LllVeqDbkwQt9ggw1S22YmH6yvr0/BxdFHHy1f/OIXje/imVZ9CZrC8UvvoFh24cKFtLsmlToF99Kxu3hsE/0htl1KCRUp0LQ6PIKOcucJKl588UUFE6glAEw0NzeHawVrpdWKjY7cqwdaV8PWz/bujVXbOrd0VZ1vr/Zac3M7tdfCXJky1C9YhR5HrdUJ7Q2b1Pdzp8hQf3Hl2LAHZr3cfffdKhXU1tZWdbquTvg5XRNG1Pkypu9HqAirifn4vY7dNQYVcW0ohimlnP2RD4UN8xY6YThdB2IqfOd8/1rh8zfffFPtHmrPeth1113DiG3kt+7N6koO3mv7Zs/N6lznO/dTcG8tbe+0qz4fmCCLxxe3mnbvbYPvp8oc67+pop5DLPDpa4+8pPxLL72k1rd44YUXVErEOQtGVyf8oILpD2+15Kw7ve6alrN07K4p+5lsoabHKGxkz4xi81C506Kmes+ho9y6DsRUp/CDCqzNcO2116rIxOTJk/UEZ59V0UeKWzVjm2f31s9F3+/x+VDBcvk9Ut6KxopC2BvhVf4e2yBgZ9xh6W7tkpb+dulrHZQZVuTB+qAID67d7RR8yBRZPFDarTfam5bPHhoaUnUna6+9toILpIx0dYJQ4TGllHY3Jk1N72V07K4p+5k4VFQYPI82IlSkV3GDPJmOcus6EFOdohZU3HHHHSo6sd9++8lRRx0VRDz+v4k5UoGogxMqyrBg7wLZ3leRLgFozBisDRXNcyfINOkV6QSQ+L9OmF/cc889qt4Cm6eh5mKVVVYJvZ8IocIbKmh3w2hi9n6rY3dN2c/EoWIkX1wchdk5XLsZCRXZU2jnE4+m3Nh5c9myZWp64Y033ihPP/20Gp1iK218lpUNqbAGg73nBUbWa621VnyNFjNU1Ex/lGCjfaBZ+tpLgIARLdIaMwaldarInFK9RFX6Y1KyW0XPnz9fRS6mTJniuQdKViHUqSRh3sHdV9Bn7H7kVjzP2R8e0S/a3fi6bBqu1NBQkXdiHu4uyLy2nipYCqV4lhFoHSzlt3GiY7QZ6jp1+PFoyv23v/1N/vjHP8prr70mqDnYaqut5D//+Y/cdNNNcsYZZ8jWW29d9cRpGnkCgn7xi1+oZcgBE17PG1nkNaDCWZBpb9/sTmeoz12Rh/JWz0qNnOmSaTJ/aLzMdMBDcevpPmlf0SPNzt86tpEuRzrgqGaO1y7UDCKnq666Sq2si8WzAJ72EcYhu++TpZoK7Kt06qmnVvWVAw44QDC76PTTT68SYy2oiGp3o9i1BYWCWNNRJObAVhAVqviNZw1S6KtUnxBFNjHcXl0i1VCR6JRSD4PpFqrJSAWUoWtgsfRa0dzZsydYm/D0livr1XOpqvjpskhGoip+54x8v6iYs26uvoYAGmYulkWLJsh8y4BXdTYbKtrmFe8/caJMmzJHetzDi7g0MsbrjFaF/Pe//13OO+88OeWUU6S1tbXirliu+gc/+IHKpzsPP6gwUV2PCAvSHNirAzCB8DwPMxLAXkCICqHu4phjjlF7WkSBChP64pRMlPudc845KrXm7itf+MIXZPz48XL22WdXNYLn7I8Y7G6VXbOMlhNSi/U5+KwgU+f2WrbNrtmxUBVQYa33NtkFoV7nF8F2MhJspZof17897GnZqYsz1ed+Dvs6FkyXbK7Xs9a61mh+wks2Xr7D1+5H6FKpnv3RWFBRrGrvxzQ8Vc0uUoTqoptfUGiVwRlWisZS1tauYnGaHQqudU75ewCBdU6nzKy6hlIuZyTCrUyl7zsHphbPtYrvRv19BGWM+1Qo96xZs+Tb3/52FRxg5hRzjgAAIABJREFU/vydd96pduR0H9dff708+eSTVdML/aACMwi81oDQdTzO87CzKkAIW5IDJvbZZ5+4xcXrBZTAU089pVIiTU1NcuSRR8qWW24pSENhr5EwEJqkvni9iu79MCMGkRq8s/v4yU9+ovb3uOCCC6q+w9pAg4ODletUxAIVJVtZsmuwheXDYc/K0QCrXNi2WbCjMxdPkM7+GtEKr/MBD5b9nDN+ZrFouPRvL3vqDQKluiDHc7gjFV7PWutao/kJt82HbLx8h6/dD9gXvH6WaqhopCmlZQUqO+0hF1Q0yWQgM45yCLiU3qhxzkgozCJjq5p+lwnT5Wuua/gql+pkU2TK3LlWVb7VETOW/sDutO7RPBz0v//9bzXCmj17dlW/QJHexRdfXAUIo22ZjosgirDmmmtWXS+OrdbhwP7xj3/IzJkz5dOf/nSELs9T45AAUhc/+tGP1Nof3/zmN5VTffbZZysuXU998XpHXf0EVCC95hWNAGicf/75su+++1bdEkCx+eabW9FX2+gEk7xfhNht1zBLaFw5kutcO6VkHx1RA9T1TO4diRCUn8jjfHeqpPLf9kwlwIllX0sDwFrRBZWGroheVBYgBz8vnM2HbIbUO1f6Dl+7H6ypPH+V6vQHocIjUuFY3ccPRMr06yZr5wpBOY9UwKAhWuEeQaKeYs6cOXL11VdXdQxMy0StAkK77vPw73rtcomRJsLvzz//vIpWbLvtthG6Pk/VkYAVPVVtAMBDG+y8887qMlkp7HWn9PDsfpG0V199VRCRcPcjnIu0yMDAgIpkuI+klul227XiaLxUK1ERafCCioL0WQmNxeOLi7bZh/f5tuMvDsqmTJkrc9X0ZnuQNlfe8Ige2+un2NGRUaMXpSBL8AiHH1SUnrlk8ysiFWHsvk7nKJ1DqBhFeH7EHEHuVaf6AcJIXsyDxEeJVBRziqU6DKROVF3GyDV8iTXjNRW1oAKFmtdcc41suOGGqn7CPu666y7B9EyvUZlf+sNU4R30Eo4NURFEYjbeeOM4VXH0a5Wq9+2VNAPfuGI6qV4Bcb2L7Ow1QAAT+++/v3p1P4dcTwh1t00U/ezv71eFze6+go3pEK0JXKgZQGH87O5I/YGzvqxU+GvVfE2c0FlKD3tDhcxwFwU7ajIc5+vUVMCeqlmFjtozL2Ao/k4qairc0YxRrxXU5gMkPKIwvnY/QDvV+gmhIiVQEaENeWoNCYym3KhYv+++++QjH/mIYNfOLbbYQlWxIz9+2mmnyaqrrlp11bRAhf1gyFlj/wqMluHosJZCsoddYGYZ8zumyNzPVRYOexaE2QbNZWSLxWalAuIahXZuo97e511kl+w7i3KmCPN7rQHSKFCBSAw2YnP3FSxtbkdt3O2QVKQi6fbm9aNJgFBBqChKwEGzxQ+81+6Ipm5mzw6q3Kjqf/zxx9X6FPZ22FkKZwMuELk47LDD5OCDD05WyKVCu/a+6sJhr4Kw8meOAl+vYrLyQ49SKIfCuFGL7GJ+84ceekjBxDbbbKNme6y33nqhQDNtEBolUmH3h6B9BYIiVMSskBm5XFC7636dOPTTeU2v/scNxTKiRGl9TJ0q5CgjzyhT9nQgxn0/pHOweR6W6N57772TaZYyVFQXfxWL4Eq3VcXEzaVltysLfIMW2lUXytUosov5TZ955hkFadAFrEux2WabqTuEbSM/qKi3vthi09V5v/fjhmIxK2ZGLqdjd/FqJvoDoSIjSpTWx9RRbl0Da6pTOGXt1QkxksToGtMesd7GJz7xiXibxx2pcBR/laMSXp+5IhXOqXm1C+0qC+V2mTAgf/MosovrBTE7AjCBwkPAxA477KAurasTfk7XhBH105ck349QEZdmZus6OnbXlP1MdpnuAO3kVzAU4BL8SR0loBOG03UgeE0T4TunOEe7H6ACRXQrrbSSqrdArUgsh73OQHnhH0fRr1dBWI2aiooCYueGZKMUyqmaCo8iuzjeC1Ee1Keg8NW9BoiuTvhBRZr0JYlIDNMfcWhm9q6hY3dN2U9CRfb0KVVPrKPcug7EVKcIChW2k7j//vvV6LulpUXBhdc6GqlqNMMPg6W3EdlBLcqee+5ZtYpqkiN5QoV3Y3MwZ7gTxHw7Hbtryn4SKmJu7Ea7nI5y5w0q7Da//fbbFVy0tbXJEUcc0WiqUPW+mFIMeWy33XaqBgXrkuTdyZt+P0YqGrOb6dhdQkVj6krm3lpHufMKFXbjwdBjGXI40kmT6r2tknmVwp4pgIk11lhDRW7sIkxTRi1spMktoSzpJ6HCvH6n4Y46dtdU/2OkIg0akuFn0FHuLBlt3ZHn22+/rVYTxZRJONZddtklw60c7NFfeeUVBRPYiRZA9fGPf7zqRF152qmmMABgyojWE2IIFcF0M2+/0rG7pvoDoSJv2mb4fXSUuxGgwnaCzz33nHK0y5YtU3AxbpxzHV/DjZXg7bCrKza9Ovroo2WPPfao2zLr7lfMO8QQKhJU6hRfWsfuGoMKa+e/FU7ZLV26VMaOHVslTr8Nm7D0Mnal7Omxtv4McbBgKISwUvhTtB82eurs7Kx4Oj99wY/HjBkTSs/wY139rPf9sLnaXGvDOGwaddxxx3ku8pTC5vV9JMzmuPTSS1URJlI9fht8ZbX9bEGk7f2woy4256Pd9VXVXP1Ax+6asp9GIhULurulucPa5c6jWQkV2dZ1HWJupEiFu3UB3xjV77XXXmqdhqwed999t4rA7LbbbioCgx1ecTT6FE/TkRF76XgvqKDdzWrv8n9uHbtrLFKR9C6lWAFw5uKJ1gZbU2QI2+e65EWo8FegNP9CR7kbGSrsd7/pppvkyiuvVA75i1/8YpqbuOLZsHcLpodikzgs/PXBD36w4ntCxX+NTZnFtvCI/KCWxQ0VtLuZ6VJaD6pjd3MDFX4SI1T4SSjd3+soN6GiuBy1BfRqtP/Xv/5VwcXuu++e2sbGVvB41tdee03VTWDXzLBLapsyak4hmo4cmLrf9OnT1T40jz32mKplYfojtV0nkQfTsbum+p+R9MdoUk0CKkb2PXDc2bGJkm8rh/mt78VKP3BsS10+xeuzoNdLye90lJtQUbnHxYsvvqgcNpaUBlxsu+22KWldkeXLl6tnw26zeLaJ1mqcbD/vPUpMGG17r5SzzjpLPvzhD2d6QzFseqeWkpeCtA7OkP4O80XMnr4iNb2v9oPo2F0T+ol7ZB8qLABoUjssjez4CUVxb/ts720/R7qqvqv6vUPJ8V1xuWORafNXSM+kka2prdWGRdqtTlFaigCdpHm69UPrKP7W+h+PJZQ9PwPIzFxs3WeCzB8aLzObXVtee7wn3sn97qb7g45y0yl5OyXI8he/+IVsvPHGakom/q7ncd1118m1116rYGL//fcvPwrbrz5QgWjR8ccfryBvnXXWUe2RmtkfPvar7LylWwrz2qSnY0gKTZOtXWamyfz5IjMtqIBtrrS1eMPR7K3bNsPcFmReW490lO8zTn1W9Acis2dPkOnTe2Xi7CEFMZ6+orwUvmMXaef7rbA276tnx7TurWN3jUGFNRKpmP2huwEPdm7E9tCmw3AjGywNy/DwOGvKHhSrVaZaKtrf0jVCwKXowxzrG/Vd2zxp7WoRbLRUtU10e1/5PDdN43xF15OGrd0hm2WgswQPTiVzRDq8tqX2+syGHij6qNtbjxt5T693N63rUG60+bnnnltxa13H45eT19VPPJxOuL4e93viiSdUMecnP/lJ5dBXWWUVo836xz/+UdVNfPazn5WpU6dW3Vu3bXGheshzo402iu0d6qWf6GcXXnihXHLJJRXvkpoNxbxsnuXYR2ysl7OvjFSUbWvFoM7e8K7a3npFOryhYsQfNPW1Wzv7ihSsLW56vGy/9ZmX/XXaZ6OdscbNdOyuqf6X/V1KHRss2dEBL8VyRioUyY6zCLh1UGZYxaNi0639WeeATC2F49zXah/ogjYqUi0rtY2tVZs9WZdu7ZKWfue21F6fWSRU0Smrt7wuRze8oiDOzwxrvI5y0ynVHuk6ne58awiHYk7kzg855JDEW/bBBx9UMIGw+pFHHilrrbVWaBCrl9P1AkZTRtTZMElAE2baYAn4s88+u0oH0gcVDvuGKEPZeQeBiq6qKMOC4gU87W2tqIRXpEJ9Vt7F14qSuJ/L4Q+GrMkFKviNY9p8C0IsA59ESjxCj9axu6b6Q+bTHyOj9dEVeAQqSpEG7ADpiFRUbBNdEamo7AwzypEK6FmT9LWPRCrKHSCuSIXnltcj7+n17hH0VOtUnTBcFKgwVQhnCyMN97vqqqsE6xFgtsXee++t1U6jnfTMM88omMAaDEi7fOhDH9Kum/CDijTIE7LQ1cGk3u+NN95QK7CefPLJFU2FFBQiV6eccopnE6Yq/VEaiHmN9L2jCu5IRTVUOAdubntbKyrhrtMo/84TKkrP4PAHI3bVIfIUQkWvlc+ZNWtWhV4kpZ+4SdBIb+ahwmsE7xepqN4S2s7NlXJoZeUr5twqydfOBVpVHFbR2oROj5oK59bSYWoq7GKl0ba3TmGkIqxy6xp0KHajOiVMG0TUAg4GKZHtt98+Mlz873//k8suu0yGhobUNXfcccfyNXXbKA1GzSmYLOkLZtZ85zvfUakvHFhUbKWVVlIpqFqRmDRCxYhNrqxJUPVflm2cNmWOVVNRjM5aZRUVNRXuKMNITYWXva2OfpTrzBz3GR0qXLYfAzkv+0uoaCCoCGlavap9dSuAPYk25PNk/eeMVKxc1YS6DjkIND377LMqqoDVSBFV2HLLLbVU6JprrlE1UAceeKBnakX3HQgV0dapeOmllxRYtLS0yMc+9rHyhnSphwotLQx3Eu3tiLx07G4Q+xI0GmE/iVd/z36kIpxejkQeHKmFUFBRnnGhQgbFfFsDHzrKreuwTHWKLIx077//fjULAM4HUYY111wzkBYijYLzUKMxZcqUho386OqgCWg64YQTVEQK0Od3v9REKgJpn8aPaG89haZjd03Zz4aDCg215imjSEBHuXUNuqlOkQWosJ/xjjvuUJGLtrY2OeKII2q21N/+9jcFE5/4xCcUhKy22mrqt1lKD4QdRWXx/bB0+2mnnSYbbLCBilggBYKDkQqaYacEdOyuqf6Q/dkf1LW6SkCnCjkKVCRRXT+a0c7K/a6//nq58cYbVUoEG3vZx/DwsIKONdZYQ4455hjZdNNNK/QlK+9Xq438RvJZeb+XX37ZmpFQUDUuAAocSIXMmDHDWl+htyZUpGb2R12tUOPdXMfuQkom+kOsUIEdCzGXOswBo4eOA4PII3sSQPthdgLXqRhpu3pBE2ZvoMjv4YcfVrMIMCUVMzuwrPZ2223nqVwmjIzzxrxfdQ3OwMCAdHV1qUiS+4C8vvvd73p+h98CKu68807a3eyZzkhPrGN3jUFFXBuKPfTQQ2rXRXeYDvsb4LB3MXRL8r333lOjqG222abiq9HO0/0ON3jnnXdk1VVXrWpQ3WviPEwHe/XVV2Wrrbaqum4S9xtNnvW430EHHSSHH354xbvrOla/kSfD9f6FoUuWLFGgt+uuu0pra6tql1rhc8rTX55OxY6in17TRvv7+wVRJkB5rfQO+jRm6CB15T4AFNgHJIzdhc3Cn9VXXz2U3U3Kfuras1p2V9eWp+39asnFfr8DDjgglN3F9Uz099hqKmoZriidUOea9bgf8tXY0vr000+v6vQmGtF5U97PnJPIin4SKjap6pf1gl7ntFHsVPvPf/5T1U7o6JIpJ5FW+1LL7uq2baPLU0cHE539ofNAeWlEQkV6jHbYYr56QCidfGPrC2ol2tvbVVoKC5rRCepF0ggV4QZQpvwtIxUlDNft2DiPUNHYTsI9DNbVJVOdPq0jT52BSRahEKsgbrjhhmrLctTAUF8IFXHZkDT0B0IFoYJGzdIB1hxUmjVdR5cGo5ZmaOrs7FSzc/bYYw81u8Nv2ijlWXsxMUYqUhqpiGuXUp1RBs7JQzX43//+dzXqwPxy95GH9xstXM/3C9ex/ZwE5ZlfeWLb8o6ODtl2223LZsJv2ij15f+k1i6zteyuLhDnxR/V217HNqW00aAC+yagKBIKvHjxYrnnnnvkG9/4hjIWmM1irwdAJ5FfJ6Gj83QStZ1EXuWJ4kysH4Lp9ptttpnnwKPWtFHqS6W+BLG7hIpguyA7FVFXZizUtKQY1+yIRx55RM0dx9oAzz//vFoPYJdddlHt9PGPf1ytWsgcefCd7WwF9zOicbUf71eUAOUZL/S65fn444/LmWeeqVbGRIot7LRR9ofK9EcQu6vrINkf4rHXrKkoeRddRWShZrQNlNzDNhpRyjOMTqRZXxCe//Wvfy2zZ8/WrltK8/slNdJ1Xnc06GVNRTggNgVNhApChbbBM6WkQY1MEuFzjuTDGS46wSIUYuO2++67T1CYiSPKoKWWXjd6/yNUhOubpvSFUEGo0DZ4ppSUUEGnpAOM9dJPbPKG1R7tGitCxbuqC4ddQ8av/QgVhAp3VDM3OV2uU8F1KuIIBfsZUR3DzMiB2XTSzJkz1Xb02FY+Dp1g+3FKadbSgYxUMFLBSEWNURSdfPjRZSM7wTPOOENt3HbwwQdXDaCY/givS379j5GKlEYqrM2Hijt+lY6lS5fK2LFjqzoFZjngGDNmTGzf4UJZvt/rr78uL774olq/H/lTbC292mqrVUwby/L7oX1Ga/estx/fL9v9L03thymhRx11lHzoQx+i/XR5CF3f4WVfli1bpmbbYVMtp93FbzGVf+ONNx7VZtGeJe/fGamIEKlYuHCh3HDDDRVTSjfffHP59re/Xe5WLPQLR9ONPNL1G5nh+7B5acoz2fQH1k3A9PHzzjtPtthiC07RtabNug/dKI1Xf+CUUv36KlP2hVARASpwKqeUJmu03QaKkJas0bblresIGglinn76aTn11FPVejXYRtyU0Xb2iUbuD0x/hLMFpvSTUEGoYE1FjQiAqU5IJ6E/+qoXxGAV3V/+8pfy85//vIJ7G9nJm46kESoIFVVhsbwYbc7+4OwPp3LrjvLz0h9qOZe8vN+dd94p/f39ctZZZ1XZNEJFOEcXBQoJFeFkbar/MVLBSAUjFYxUxJYHj+IkTI90de53zTXXqOLsk08+ObeDpKxAIaEipVDBXUqLtkF3dInzuEvpRsacEjdoC2dI/Jw85RlcnhdffLGsvfbacuihh3oWzKITUJ7B5elnd/3kyV1Kw8naT546kO25oRihglChC1SmlNRJLDTa4QwJoSKeXVGxqNWuu+4qe+21l1JHr1k47A/xz04arb8TKsLZAlP6yfQH0x/aURpTOTonVDBnHc6Q+EEF5ekvz5NOOkmOPvpo2WmnnUbtK+wP8UMFNxTz10+nfUxDfydUECoIFaypMJa+yhLEYKGkY489Vs4++2zZeuutfdOkhApChbsjpcHJmx6UESoIFYQKQgWhwiEBOILnnntOLWKHNSjWWmut8reN6CRMO6Wg92OhZrgohinoJVQQKggVhApChUMCDz74oFx00UXS29sbSi6mjHZQp1ur9iNKDVWaIk2ECkJFVQfNSyfkOhVcpyJoXpMj3XSvwPqnP/1Jbr31VkFhZtgl0fNiz2rBSNrej1CRUqjg7I+iO9Cld04pjae63nbKfk6Xsz/CGRLKM7h+Xn/99fLMM8/ICSecoNRRByqon+b0k7M/wskaOm1CP5sIFYQKXaAypaTOKICJTsH7RYPs0Ua6aW2/Sy+9VO3fceSRR2oPMNgfwoNYFOglVKQUKqwtZCu2Pk9TzkxntOCnpEm8H9MfTH8w/eEP52kLn9v2BbM7tt9+e9l///0jRS3T+n7uvHOUQUQS9lM33cL0R3ioMNF+LNQs9TjdjsZdStOdI4+S2qKTiH/kacKoOZ2o3/2wy+iUKVPkU5/6VPk0XVtAfTGrL4QKQoUbmNW//Tp92LwmIxV08nkdmWUlcqc78jT5fu+884587WtfkzPOOEPGjRtXoTKEitorhqbJXhMqCBWECocEdA1XPaApC06C8gw/SswL1IfVT9R1TJs2TVBHseGGG1bZJV1dalR5RokGRrFnhApCBaGCUMGctbWwUlgnWC+jbTJyoOvIwzqlgYEBOe+88+SSSy6p2Q66z0KoCA+2YdvPNqGjpZ3ZfvWNNHH2R0lLdRWRU0qDT9lzGgQdh4Vz0jp7wEnMurrE94vfKTn15a9//avcfPPNcs4552jP8PBzgtTPcKPnKPLk7I9wsjZlXwgVhAptA2tKSZ0Om0Y7nCGJYrR1wC+t9/vDH/4gjz76qHznO9+JFC1L6/u5w8C6YJul9yNUhLMFpuw1Z3/EABWcUsoppXFFKtJUCJcEVNTj/RCdaGpqkq985SvlZkrK6dbj/TbZpDH7H2sqwkOFCf0kVBAqIkUqTCip02HzfuEMid/IM+/y7OzslJ133lm++MUvVgzmCRXhU01pqxkhVISzBabaj1BBqCBUWDrgNXXZVCckNCWzgifWoNh9993lgAMOcGcHtHW+0SEtTRBKqCBUVHXsvBhtpj8aM/yal/RAHsPnX/3qV1X9xHrrrSd5fD/bmKbJyZvuD4QKQgWhwiEBhl+zH341bUR5P38j+vLLL6vaCXsNikZ2unnXF0KFf39wO10T/YHpD6Y/tEPBeYk01TK+fL/w4FfP9MDQ0JBgH4/LL79cxowZo3q2CSPK9FUy6Su/9iNUpBQqlixZUrGh2NKlS2Xs2LFVUYX3339ffWZ3VucPdL/DNfJwvwceeEDuvvtuOfnkk6vklof3q9XueWk/vl/2+zv64E033SQ/+MEPKvog+18RrvJor9Hmd9xxh6B2Jo/vl1V/y0gFIxWMVFg6wELNSseTpfTc/Pnz5ZFHHpHvfe97VQ6UkYpwo9l6RpqqGm+USNP999+vVkX93//+JwceeKAcfPDB5dN1ddcvMoLvs7AXVa3nNPV+hApCBaGCUFFlz3UNs2mndMUVV8jbb78tX//61718EtMfK+cLKp599ln55S9/KcuXLxcU42699dYyZ84cue2229S/99prL9qzOtszQgWhgp2wzp3Q6Q05sg7uBM8//3zZYost5KCDDmKkyYVUWYHCoBD61ltvKZhARArwgLVHnMfrr78ul112mTzzzDMydepUmTBhQuiogqmRfN77O6GCUEGoyCFUIDQ8adIk2XzzzZWG5y29g1THvvvuK7vttlsu3892PEGdrjtMkyeo+POf/yzXX3+9mtWz3377eUak7A8ff/xxBRcf+MAH5LjjjpNNN9204veU538Tn2JNqCBUECpy5HRRvDZr1iz5xje+Iddee6188pOflCOOOCJXUIFUxwknnCAf//jHR9VdjjyzXQOAIsyenh5pb29XOhzmwMwQRDZ22GEHFdlYZZVV1OmECgNQYeWmKmZ/cMOm4OFXW0lrbWyD7ynP8PIcbWRNedaW50UXXSSvvvqqzJgxQ9Zaay1lROfOnSu33nqrfPvb35aPfvSjVXY5S/J888035Wtf+5p0d3eXR6B+TiJL7xe2CDCv9uWhhx4S1Mo0NzcrIPCajRgUMFDEC7g49NBDVZqM+pL8rtLcpTSGSAWgYsGCBfLDH/4w00abRq3aVGXBKWFL7wsuuECOP/54+dznPlf1Es8//7x0dXWVjbTzB1l4PziCJ598UmbOnKkWtVp11VXLr0AnkbyTMKUvKMK88sorleO3izCDwoPf71DMCbhGvcWee+5ZM3KXlf5Qa+CVhv7A9EdEqLCnNi1btkyF6ZxTmxh+zXb4Ne3th/VhAAv4G0tS2yHeWgYW239fd9116ref+MQn1M+yUBh67733ytVXXy0/+9nPql7Nz4hm4f106x+y0n5+74cizF/96lc1izD9gCHo93Yx59NPP63qM7bbbruqU6kv0SPLhApNqABVoyDISdVXXXWVomEo7N57750Zo+3X6UdLR7ATRu+ETssWVJ5/+tOfVHQCaQ1smhX0QHoENRfYDwN1CUHv57y+SX1Bf1q0aJF8//vfZzW/RyOnvf3wyKPpy29+8xu58cYbAxVhBtVxv9/ZxZyrr766Sqc5izmzLs80QDahIiRUBJnahGWCn3jiCRXC22ijjRKvttVxSvVyEn5GJg2dIs3yfOeddxQUIM/8rW99y89+1vwe8/oBxcccc4xMnjw5VATAFFRcc801qkakUCio59NJz9FJ1Ad6/ewLijBR69DW1ha6CFNb6V0nehVzUl+i6wuhIgRUYFpT0KlNgAp0mvfee0+NCO2pfbZe6xpmOt3kq5fTChW33HKLIBqGQkz3PH0dQwtA/ulPfyoYseGafo4gqu7i/KBG+8ILL5SNN95YFdjp9pUw94vj3Xk/f/B78MEHlV0cN25c5CJMHZ33Oscu5jzssMNU1I+72lZKKWz/I1QEgAqEYFGNfMABB4Sm6vvuu091IizGgsjFaqutpu4YtqGCGHQaNX+j5jYqWYA07LwJ57/lllvKN7/5zbhsafk6WAfgvPPOU7UWe+yxR93184wzzlDPYRed6vYV9of09Aeki1E34VwJM3ZFjnhBFHMCMBAZw8qccYBmFuxL3P6Isz9GgYqHH35YwUQcVI1RJsLNKOTEH11D6aekrF6OHr5zGpN6yxPFlfgDh491GZI8kFZBwTHSKnaqIWzKIap+4t6Ab7uQNIrBw7n1br8ggwFdW5CF97PTxQMDA6p+IY4IW5J9wFnMefTRR6vBYBQdjNofTPe/OO5HqPCAClA1YAKpi7inNiFPfPPNN6upTZ/5zGdC54kbUUnT5ORNOQlr92DBMtQwaij8NXUgzwy4gH4iUhCHkQnSfm+88YZMmzatHJGJY5SYBacbxWGl/f0w08h0EWZc/cS5Muexxx4rG264obq0qf6gC5pp8A9MfzigwtTUJhhQFHMODw+rpWTdU5t0FQqThlk0AAAgAElEQVSvEjRnHZfR5v3ijYxAnpjZcdddd6k6B0TJ6nFg+iae5ZRTTpF11lmn4hHi1k/s14BIDNagWHvttateN+77RXHkfkab/WFltR15vYsw4+ozdjEnImeAC9QfuQ/qZyVsESpKGlKPqU1Y0AcpEdRZYDRqF3NSSfO3V0WQCAeKe88++2yVzw27LHFcRtR5HaT/sA7GIYccIl/4whfKX8WpnyjcA0xgemwSI0E6+fiht1YhI1bCxOJVcaSLY9HnBQVpHZwh/R3RwdxZzOleiyjO/hDETqT9fg0PFWmgaruYExELpFvGjBmjZWAZqYg/PGnKKcEYY98OjNhRkJmmA05/cHBQRU4wIyMuo3bnnXcKikSxEq3uNRk5qP9sKK81e7T014KApsm91qkTZfZQv4AFhrsLMq+tRzqkWwrz2qTH+hCfdQ0slt7eRTJt/grpmVT8nfszUVAxRaZYv23r6ZAha3n35o4OiYIY7m3Wo0S98mqvGxYq0ji1CUt9Iy0CEv7Sl74UOn+XVyV1GihTTt6+Z9L3QwEbahiwo6h7BKRlmBM6CVCB5/z85z8vBx54YGToxZ4kqBs5+eST1bUIFeGBuN79ffHixfK73/1O/v3vf8cyzXlBoVUGZwAmhq3U8Dgr4lELKlplqsyR/rZ50trVIv0WVQx3V39WhIoZ1i/nyVBHi/RZy530gEAiHijmxC7A0N/Zs2dr6269288phjj7X8NBBWDi97//fSLry0fU1fLpWIsAs0UQtbBX5gwSFsurkuYVKrAD42OPPaYMsl0IFpcOJXUd6CaWzcYsjQ9/+MNVtwkSObjhhhtUnYYzxROnUcurvni1adLQ674nQAJ/EGXCSpSf/vSnZeHCharWAPbKvdV4KD0c7pbW5umyyDrJGYHwilSoz8YtkEKrFUHr7xCxIxqOz8bZ6Y+WeVacA0eHdERnCvntb3+r1itCPdw+++xDqLAk6yxgbZjZHyjCxIwOdAhUmad9ahOKOVHshDw7CoTs6YR+RptT6OLNISchT9QqYKfNww8/XK0omLXjqaeeUrM0dtlll6raDz/9/N73vqc2dNp3330rXjspqEii/fDgXrMA8Hke77dixQr54x//qIqHUVSLFVgx2HGC8D333KPWodhpp50qthoPo9sjkQoLFkpRBUQgulr6pUdG6iPKnzVbEOKIVKjfOT6zIxX9HUPS3donMgcgEuaJKn9rp8oRVUTfDTLQ8+sPedSXhoCKrE9tQkoEm0WhmHO0qU15NWrOrp31ToiVIl955RU1q8LenlzfzNX3TKQwsNw3ohb2tuqjGVH8DgYZozv3QajQS38k2R8eeeQRBROYjQSIwJ8PfvCDauuBWu0HfUB9EFanRIFvqMMjUgEwUHUWEyfKtClzyjUVU+f2WnvCVNZeuD8bgQoEMuapugodpkABKgrqt956a89VQHV1N6/2OtfpjzQUYYbqVKP8GNurI3KBYk7s17DGGmt4/tp0OJT3CxYZwUgONQlf//rXPbcnj0tPTF/H3lYdUIEIoJeBxSqKiLahIBN6y2WQK1spilOKu/+h6NIGCaQybJiwnzjo/bwKGuPSzXLxpoMQvD4bud+wFRkcko6QuQ+7ABX6iwHdVlttFbrOzS9SEVSeTtmlSV+8niWXUJHU1CaE3ZqnI+OHo0TJQwUrMNejwnPFyuXSMW2+rIihKMjdEVHMCbj48pe/7FnYl0cldcoga++HbckBE+h8mNmx6qqr1rCtVsi3abIUNWiazF/RI5OsUZrSLTsPXPr3jEEPPVRFbbU/V6FhZz7Z81qWVs8esqbgDVU/i49HuOmmmwSRi+nTpyvwtdMDKGbD3jdIPWINiqy1X5iICn6bxfdDegM1EoAJRD4wpRkFuV51PmHez7k6Jeot7NUpo8JFWKhYUGiSvvbiLJEgh9emkbqOnFCR0U5hKwrIEtPfklgJE/co5/KgnLbBt8y+DRVOBxBWkYMou/M39jbr6KzOderDdHr7erodJqtG1CnHJDv93XffrarDARMoaBvtcOuWml/f0lUTKsqQgJCxO68M/az1uf0QDqhwA4fnswRIRr/22msKoBAix6wOhM+xiBYKUu2D+hksshWkb0btf5h5BJhArcRnP/tZ9aelpUXdulbNiE77DQ0NKahElCpyMWdYQxny99dee62gkBiRif322698tq6NTNK+hF3dM6q+BL1fbiIVWJwEhUJx7eDopYuVI8FShXINqIBRt+dVh9TrwD/HSAAG+7nnnlPOy5TSOB9Qx8jodtAsvR8WscJ6I52dncHas5xPHskTl8HVI1IRJ1RURd+sWvliFb7jWYK9hfrV7bffrpYY32GHHeScc86pOJP6Ul+oQLoKdQ8Aic0226wqvZGkE7z//vtVlBV6AbhAnVhaDqTKUbu22267eW7ap2uzkpRnUCdv2l7nBiqwOmVvb2+iNFwxgrNHgu19npEKE1BhT21CLtve0ZFGu75GGx34Jz/5iWywwQZquWKMeNwzHUY1pCW4sFb/GTVSUQUCEdIfVakR+wGdzxIgUoHTkO7AzJCPfexjagMp90H9NK+fzvTGCy+8oPYcQq2E1/RPE04Qex/BgSOFG7qYM2YKQaocoPORj3xEgc7SpUtZ8+OScVigyg1U2HJYtGiRCrXtuOOOsdOwGypUJMIOUdsRi9KoMsn0B0KWqEbef//95cgjj+RI0JJAWMW3hRa3EUW4H0WLCCVjJPHzn/9cOVpE0NZdd92aJrFCX2xgnTFYTm3gRPs3qKnwAoEK/XTcyfPzUdIfns8SICGN0DHy8t/+9rfLYXRCRVEC9dBPpJ/sfWTs9AZgT/dZ8B5xQiGKOW+99VYFn+6txmNmh6rLOYswsd7Ehz70IfWbON/Pr93zer8my+CtcEocpDZ27NiqRkDBGQ57CWnnD3S/wzWSuh+MGwrH4HSnTJkSi45Wpj9cxXQGCjWxcBeiMQhbYsrWmmuuWfVeScnTq92TbL8s3g870KK4zY4a2e+A3DXSVGizL37xizV00aNQswQS5frfUvFvKHiwrlGht3YBcY1CTWvVIavAWEIVamJHx3PPPVdtV97e3l7TTlBfkrefL774ovzlL39Rf6CLqOXZfffdK3QuTfYadTiAUTw3Iq5xFXPWMvgowkTdHZbEP/TQQ5XO5tH/1dN+5i5S4abwJKc2xUIqAS7iXFsfU/NqTW3KK/k6RZTWkQSAAjliAGytkSCiS//617/UGhVe0yoDqELqfoI6JuTK7T1L4o78+I32eL/i3h+IXuIP0htIbWCBMawnETbvXi95Pv300yoNEcvKnDV6CdLFWFYcU/IR5fU60mpfnM+alkhTrb6Ze6jAi9tTm7AaHHLcSdNwXJY/7NQmQkX4BYTiMKKoFscKqEcffbRq+tGuiagFihixAFRcEbS49C3MdQBHmOkB44x9auwjDnm6nyPtRrRe0IvVgfv6+gRr2NjpjSAr76ZZnvZW43EWc9pFmFgJFHUcOOKc3ZJmebr7kgloagiosAWLMC1y3iiiy+PUJkKFeajATAcsW41FrYI4VtsA/eY3v1F7aGCEj5X6snRgMyX0JURcMH006CiK+hldP7GOhB2VwI6xcL5eG9HpOrq0QKFdzIkUhS58u4swkdZPy/vZfcaEkzcNvQ0FFbZRs0NtcdJwXE7BXgUUVH3UUUdVXZadov5bPdvRCGzbDcOF5aeDOlZn+0EPu7q65JOf/KRMnTo1LhVK7DrIQ+N5YegRoQgbWidU6EMFdM2Z3kBkAumNPDolpwKj0Bmr0brX4xlNyWsVYdr9lpGKTUL5lbCA2pBQYeez0zS1yd6KHVObUDeBIkwa7WrTkRYj2t/fr4y81zoUYTsh9qZBFTxmiNiLDyVGBpoXxgZoL7/8snpG5L1rGWZCb3zQi/QGBhkoOkfxL0DCTm/keaTrHllj0SzUI/mlr+10MeQGG/qpT30qlPMk9OpDb0PuUmprl9cGPFdffbVasKceU5v+85//qAIlGGO7CDOsU3L2nCQ3GPLyR414PxgtFH394Ac/CA1+tdoWckStxbhx4ypSKZoMENtpmKKNdSeQ3oFT8xvt+UFFI+pLGJlBPvaOoIhEoOAS60o00q6otewZdmyutTKnswjT1lOdQRn1M/o6Kg2xS2kQp4tRGHbXw+qUca5TX8u6g6pB3//85z8VTGBdDfsgVKR3a+nh4WE1PfTHP/6x1mjdz+nagIt6Bfd0t9hIIcCFMO0QMIHnxboTztUPqZ/x6ydWuESKA1Mr7cWpABV++tKIThCFqVg8CzYTKewLLrhA7X5rb0dO/YxfP8NEJhs6/eG0rbYiIs8NZ5/kOvWYl3399dcrmEDthPuI0inSkh7QfQc/I1rP90NUCctOX3TRRdoLCAV5P6QXULuAQrwTTzwxAALE+xMsmIR0BzYHw0iZ+jkigSDtF3QXVkS8EJVAigPTQDEjyJ3eiPN+cQxa6tn/3PYamyuiYBiDQOfaSrq2h+mPmNIf1hKuFYtfpUlpwtBRkA4TRmmSmtqEVEdbW5sqdqvn+3kBlU64sFH05aWXXlIzNRB+DRPODuOQ3fqJPRqwUA/u65UfjhclRJYtW6ZgZq211pKTTjqJ+mmtiBql/bz6GCKiztkbCNXvscceWrIOY8/Y34sSIKTFV/NTS56MVJR6Wy1lw0ZlMOwIremuU28XYSJfjroNFGHq0jQ7RfKdwmmAAU3YshvrmyDCFAReddvWy0m8/fbbytGvttpqqkgyqeOWW25R6T8AzM4770z9tAQdJ2QDEBGVAJwiKmHP3vBzdOzv5vt70EhTVFuQVygkVPhAhd3pketGmDLs1CZ722ecZ68vH8WQ0MiYNTLYtwNFir///e8r/LkuOOi2H3LuKOQEWNgj2zgAAyNnQMuWW24pxx9/vHFoimqYdeVpov3s9AYiE9jbAjDhVSej+yx5dUpuqKeTr+zpadcXQkVAqMDPEB4OM7UJRZjY68Frl0pdxUizEY0jxJq29/vCF76g9pD5wAc+UFeosOWCWgcU+SKi4H6msJBx4403Cqaznn766WpX0Ty2n+n0HDbxAkwAJFATg4gEYIL9Pd7ID+WZXnly9kcIqLDDoZjahOpjpDHcK3M6pzYBJhqxOjvJSIxJeSLlcdppp0lzc3OVv07KqAV5P9T7IGqBDZg+//nPh2UJNcMJ0QmABAqFMcvAfdTz/eJ6FlwniDzjuB9SG/iDtRQwEwEg4ZQr5annBE21n60DvF+4OiIvvSZUaECFrYB+U5tMGjV2ineVCMLmwWsZe6QCvv/976vrpdXp/uIXv1AbSCFqMdq26k6nieXBMbsDq4BioTUaUX0jiqgE0lKACUAE/mBn0LTqS9RUE+1ZfPYlz/aa6Y8IUGGPyJESwVKyWFLWvW286fAr76fvJOyOjqmUJ5xwgnK6aZfnww8/rNaTwP4ISNXUOjD1DhuA7bbbbnLEEUeUf5b294sS9cK5cb8fojyACICZM71hCzTu+6UtHcj3i25fnH00j/IkVMQAFQhHY8SC3LT7yKPS5LlTfO9731Mzfez1ArLSfpiqPDQ0pAo54eych709Ob7bYostKr7LyvvpRKHiggrMukeNBGACkR0sToW0k1dEgvKk03V2sEaEQkIFoUK7iCwuo52WTjhz5kzZb7/91AZfWRx5IhqBWgl7W3VsT45/I8dfa6dHOsHaThDb1AMmMGCwtxa392bh1tmVw6ekakaon9mDNEIFoYJQYekAZlXssssuVdM1s2jUrrrqKsHqn6+++qpaFRPbk9MJBnOCzz//vGBNCYDEZpttVq6VsM9uxJFnniOTjCwXJRAnFBIqCBXaCpWXSMXFF18sH/3oRz2n/mYRKtAuiFJsu+22XEHQWrzMb50DZ3oDha/23hubbrppVTqTUOEvT7fQdB1WXuxLrdRdXt+Psz9igArMAkHhFqYfug9W18cbvotbnqhFWG+99eSggw6qajt8EPf9/JwS72dOXzB7Y+HCharv2rM3/ECM7fd/nN3ishRRoCmP/Z1QQaiIFKnIcqfAstvYjRP1BtxaOlh6IEqotN6Q9t5776kNqDBTCzuCIoKBWgmsduk86CTqu8ulsy2ybF/8+kq9+0McOu+5TgU3FIueU+Lsj01ChYmjGO240hFYdhvbTB999NHq2VlzYAYq4mo/+2n9Igf2/e677z7BLBhM+b7//vvl05/+tHz3u9+NbV0T+3nq9X5xpRyCypP3G5FAGuxZ2P6QZPuxpiKGSAWhIltQgUK8Rx99VK1FQSOa/xw51pbAcuQ/+tGPZKWVVlI9/oYbblBTcE899dTYgBgXIlTEm76iPLMnT0IFoSJS+iNrnf4vf/mLCn/bO34SKvINFU8++aRalA4Lf7mPa665RtZff3015TaOUDChIv4VJ7NmX8JEAPKqL4QKQkXDQAW2oMdW9meccUa57xMq8g0VWGcChdRIdbiPv/71rwKd+OY3v0moCGAH8+oEnY1PiIkeGSFUBOhMfjkzpj/Sn/7AFEvse/HjH/84sAOhEc3+yBP1E5jhg31S3EdfX59g63dsHMdIRVEChOx8Q7YJaCJUECpyH6lA7vxnP/uZXHjhhaHy54SK7EMFjOgFF1ygwMG92+wpp5wixx13XNXnfoMI6AULeyu7kq7MCDH5g5imJUuWrHCqx9KlS6s2xcL3mHqHY8yYMVWGWfc7XCgP93vggQfk7rvvlpNPPrlKNnl4v1rtnoX2wwqJyKefe+65oXU3C+8XpW82yvutttpqcuaZZ8qXv/xl2WabbeTpp5+W3/3ud2pjtXHjxtGeOSQwmi1vFH1xbwoZpY81ojwZqWCkIreRitdee01OPPFEufzyy1Urh90WnZGK8DJL88hzzpw5giXMsbfLkUceqVZRDasTaX4/Jx0xchBed9nfw8uM61RYWpNETok1FemrqXjnnXfUSBRTCXUNLI1MPEbG6eyS6H9B0xEo0kXRJmAT28XrgCahIn/h+rToZ16gkJEKRipy6XQPPPBAuf7661XKg1DBGgB086OOOqpcW7PvvvvKTjvtxEiFK/lDaCI0ufOBYe0noYJQkTune/jhh8ull14qa665pmrdsJ2CIxd9maXVKSFK8dRTT8k3vvENtejVRRddpLaFZ/qj0oWktf2iOjr7fL5f8tBEqCBU5MrpFgoFVZSJ7b6DGBIameSNTBogzY5SrLvuuupxfvjDH6pdaT/1qU+5/VWu+gOhidBkuv9xQ7EYoIK7lG4Um2H2c/KjbTA0ffp0wTTBLbfcsuJ5okQquKFR9MVwnI1RD3n+4x//kP/85z8qSmEfiFZg7QqvlTapL9xQzFRkpB79YaONkrXXhApCRaSRWVo6BZbdxloE48ePjw1wcKG0vJ+uowsLaW+99ZYsX75cWyf87vfCCy/IhhtuGFsbBbkfdANTStdee+2K+2L9igMOOEDNBnEeurLGNerxfkHlufrqq6t0T5T3a7T+EDXa6aefeZQn0x8xQAVnf9R39geW3W5vb5ftttuOOXKXu/Yzau7ZGIcddphgi/BaiztV0YDHB6+//rq8+uqrstVWW1V9i2vbm3oFuVbU3yxbtkw5eq8Dz7LOOuvIBhtsEPU25fNNv1/Q+6GeBBvooX2jQEU9Z+/EAX5h+0PSUJFHeRIqCBWZNjJYdvszn/lMebTJHHKlfwxrROF0UOTqtQBQUM977733yh133CGnn3560FP4u4QlgCXqcRAq3lVy4Iqowe1EWAglVBAqMgsV3d3dKjqx9957a79DWKeb95ELoSJh716nyxMqioJnf0++MJtQQajQdsgQXb3Cdz09PbLFFlvI/vvv72sswpK20+7X6/3cvkf3HcIaUUJFnbx+wrclVBAqTNlrQgWhInNQcdttt8kaa6whBx98cNkUm3K6jFT4ez+mP/xlZPoXhApChTGosCq9KzYUy2M1qrMDJ/F+nFKa7BQlZ/thHw9sEIUluJ1HUlCRhL7guWvldOt9P+yJcdlll7GmwrTXT/h+gAoUdWJTNd2+gkest34mDfV8v+hTyDmlNIZIxcKFC+X2228XFA26DyppdCW1ZXrzzTfL4OCgfOtb36qSs66h9EsPNFr7ESoS9u51ujyhIlikotH6exKQxvRHBKjAtrYAicWLF8umm24qTU1Ncvzxx1dsp9xoOfkklBTXvPPOO+WRRx6RQw89VDbZpL5TWPE8SUFMvfUlNzUVCwpSkBkyfmazTF/k8OTT5svQ+JnS7Phw4uwh6e+wtkC3zmmaLDJ/RY9MUqcMS3drswx0rpCe4geZPZj+CAYV9e5/SdlP+7om3o9QEQEqsKgO8vr2Ur9vv/22nHbaaRVgYaIRnZYuj/fr7+8XRIO++93v1q0w1O1NCBW1/WsqaioUVPSUYMCCg8I8aevpEAsdZLi7Vbpa+qtBwTqndeZimdBZ+m64WwpT54rY/84sUogQKggVkIAJ/0Co0IQKdFIsnDN5sjW0cRxYkfB73/uenH/++epTE42YZ6h44IEHpK+vT8466yzK05JA0utw5CtSURsqRiIVE2X2UL8gUIFIRevgeJkw0CI9VmhiuLsg86yPB1rs62SXKggVhApT/ohQoQkVM2fOlClTpkhLS0uVpTn11FPlpJNOks0335xQYS0LrDvK//e//y0ozPzpT39avgQhTV+eXi7Ra0XNXCx+pRupGJwhnQNdIj0zZLB7SDpa+hwRD0IF+1+y/c/WsCxHQgkVmlCBnTB322032X333assDWDjV7/6lWCtfXZCvU747LPPqs2efvazn1XIl/LUk2fQFQQbJVJRM/1hQUV/S5cUrIjF+JYO6bCQYiSNQqhg/0u2/+UCKjil1D8s5kWN2O8DxYOdnZ0Vlga5f9QAfOc731Gfs5o4fCfEXg0/+MEPrBB0T5UVpzzDyxNCDDqFNTezP3wiFc5CTbGKN1egElOlPyyo6BiSQlOftKNgs+I62YYKTin1X1GT9iW6feGUUs1IBU5DQdof//hH2XPPPdWmRI8//rgsWrRIfvjDH5atD5U0nJK+8sorcuKJJ8rVV1/tacEpz3DyDDtl9pBDDlHbx2NxMd3j4Ycflvvuu0+1I490SGDevHnywQ9+kOtUvDv63h+0L9HtC9MfEaACpwIifv7znwvy/6ilQOrDeTBcGFxJ4QDh1K677jpu+OPyRaZyrKgR2nrrrSPtUvrGG2/I888/X15CPR1utbGfAvbpqKOO4oZiPlBBex3cXqNHedklQkVEqIBQ29ra5M0335TzzjtPdt55Z0JFDWWzBVPLQWJ67pw5c2TVVVclVNQJKrbffnu5++67I62o+eijj6pC5VtuuaWxPXmK3p6zP4qN4Re5I1QQKqq6rWmluemmm+Qvf/lLWVntqaT2g1FJgykpRlGI+Ky55ppKdEELC/1Axc+QmNaXtN+PUJEiEojxUQgVhApIwIQ/YqQiYqQChW3HHHOMqq9AIRTWrXBGK0w0YtbTLdOmTVN1KFgpM+1ON+8QQ6iI0ZOn6FKECkIFoWKU3Jdufjluoc6fP1+eeuop2XHHHeWOO+5Q9RQXX3xxeeGruO/nN+rO4v1OPvlk6ejokG222YbhSUMjidEglFCRIhKI8VEIFYQKU/6BkYoIkQqE7LGOAja5AlScfvrpasTtjFYwUlE7/fH9739fpk6dKttuu23ZfDJS8d+67m1CqIjRk6foUoQKQoUxqFiyZEnF1udLly71LNLC5lk4xowZU9VVgn5nrYkh2B/Defzvf/8r59Gdnwe9pvthRjsPv43rfrfddptagwLpjwcffFCtTYHNxJ588km18NX/b+984Cupqjt+Ev5YdCmCuq5W+JR2Y1hLlv/QPAErXbrsGkpWNCxQYhdpXgFhE2iqlEbRAErDxwQpLS/IaiNaXRGCDYlSKX/cfeFfy59QQnhRWluJFNEFAqW7sOk9983Mm/dm3nvz7943b95v/PjRzbszd+bMOed+55xz7/3c5z4nby2q/szn1PV8Zn/8vn/jN37D9b1zm6D6wrUnf/RHf0SrV68ueoXVni9of0F0N8zz1Wt/a9eupe3bt6NQM0ZAEMWtMFTs2LGDNmzYQEF9ayPagxe/C3kWc4HWSAUvZvStb31LLl9tHlyHsMcee5S1m9nZWbkUthvMBDG2av15vSYDxWuvvSZ3JuWva/4vD77mYML1AXvttZess6j0fF7789ou6v5efvllufdGkMJJnlrIszk4xWE/vvSlL1F7e7tc36P0QKQCkQqvuo523iWASEVeVvAv6v2LdqhgoOApmF4P3ur661//ulzyGod+CfC7CgoVfLcvvfSSXF30a1/7mrx5The1tLTQmjVrfG+OxecjneRtNo2pKX6dKNIf+m1MR4+ACkCFLv8JqNBh0XXcR1io4AjHiy++KMGC90pZvny5tbOr3x03dRmF/XU1GsQAKurYWCvcOqACUKHLfwIqkulDInuqKKCCb4ZTX+zY7r333oohSL9f1l6+yOMyW6gewq+AishMJ1YXAlQAKgAVhkki/VFb3xQFVNx2223EtRmnnnqqjFjw1tp8IFLhfLe1jozYoWJ+JEWFjbfaaTiXpd6VRPx3c5dP2WZrF+WyvSR+kgdW1Kytzbr1DqgAVGiDCp27lPJgcuCBB6KmIn4+p+wdMVTceuutnne5LI0c8FRbXssjnU7LnzgV0t/fT6Ojo4GgAhv+RFtTUSpPXrjNXKbbDg+CJCg11EpZsZun9XexKXjTeGd+h0/bAaiIn4EzVGCX0uqFmvAv4f2L1l1KARXxczbV7igMVPDy5Y8//rhc3Mp+sOF+5jOfoS1btji6r5b+gNGHN/rSd8F1LubhGSqoi2Zm85BRekQGFcZW5GPUbUVGqumryt/nR9I00ZGR0Zp6OwAV3iIV8C/h/QtqKljX+CusZSt1cXg3lxbfXxmyfKVwbPZ/F0t7jQUAACAASURBVIWEeybFV1oLjaRaqG/a5mb4753j1nnOc4QjFtdtGlxVCBuX9BMXp1Ut/TE/P0933nmnY9oo797KUYqBgQFXcNi5cyflcjk67LDDin6vBhW1Tg+URmL8pnDi/nxe0x8tW9uoh0aJBpYKtmIIJ1qoOJba+s4TPfXQZG4VDbb00TTZUzFpGpqdEZEvouHhNurrG6X24RxlS0Z+BoLuraNiV2Ginsn8PVuQQCOUnuigjDiH/1bueoXfpq1r5H1H8T2xbacGZ0RfbTS5lCEndum3bqQ/vEEF/AugIhLrlOHc2TaaWdVP2dah8lBhCwHnWSQlvqHGDAc2TyPpCerIGLllExJKQsRT6SYa7xROTfydHQ91GefXKVSwEfJ6HPZpozMzM7Iok1cXTdqg22hQYdZO2A2tkBaZonTTOHWWDJzRQkW/sLB8pKJzPEVz/QL8BQTYUzHSBoXd5lMxJFJtXBhcPJTbUzapOWHnBkDIyEMRVBg27XI9y947Jqz+p9LOe5JQYfQRiYOK4CKACkAFS0AHNCFSQQIGUkPUmu2k8dQc9Q/M0lCZSEVRjtlh6O5QYTlCM2RqgomMZPTTqsFuojGXCEkEjiSKS1SLVJhKak4b5aXKef+Ta665RnYPqCh+C/UWqagMFeLZSiNu4k/qoKKJ1ouIhDxklJDrO4yUhIgw5gfyXBmoMNqVRCWcUFH+eoX0h4Ap9hWiODUnPhJK7wlQ4V3n424PSf+IUPF8gAp2ipZXEL7qCz1ER7unP6KHCtFPi/jqYq4ohZkoiCCCa3iFCu7qySefpI997GP09NNPB542CiejfsU7u1qUfrnEakppSU2FA9BltDAMVBizWDhqWBq9cIEUy/7ZZo2iVStSYa+zQKSiyPNgSrf7x5WuyEElewdURDBIll7CSkdwtJQBY4yo/Tc7rQK0ot85yiADC/kUR9j0h1mrIa+zlahtIOvITyt4ZF+X9AoVv/rVr+jSSy+la6+9NtS0UUAFoMJSUHNw5lTEerLVVAgbNeomwkCFtHf+oBBLxveINKRZUyGjF65QYdZlFGo6CjUVhXtCpAKRCi+DdWKhoqGnlJZAgqAKmSN+X88ofbYkzGoqiWvRpfyxTE2FLAizzfc3wrbseAoFoJyCaaFZl6I3XwSgoLGX2R/77rsvnXfeefTNb35T3kGYaaPVoALV2eELqexqUmlKaVB1iiz9EfQGcJ5DApj9kRcJ/Mv/yFWNS4+g0SS387ROKeVcOx8nnniiZ7PnqYdDQ0PWZl2eT0TDSCRw4YUX0h133FFxnQpeg+L2228v6i/otFEYvXqjB1REYhp1dRFABaCCJaDjo0xrTcXZZ58t8+28g6eXg7cNf/bZZ+m0004rO6h5uQ7aBJfAgw8+SPfdd19Z+fO7+fa3v+3Y8I3hIMi00WpQoaN62S6tRusvVjUVwdUWZ5ZIALM/vEFFo9m7qSaRRiqWxKHLiXZ3d1NXV5fnFTU5jHrOOefI/SKwS2lt/GSlmoo//dM/lYtYHXLIIUrDabr0003CjeZkABW1sTPVvQIqABUsAR3+TGukAlCh2nVEf/1yUHH++efTX//1X9Mee+zhGnmKknwBFZVzwUFl7eZkABXR21AcrgioAFQAKoQEEKmovTtyg4pLLrmELrjgAlq5cqUW8gVUACpqbwn1fQeACkAFoAJQEQsvVgoVvLjVxo0bqa2tTd6fjnAaoAJQEQtjqOObAFQAKnT5a62zPzZt2kS8lTkPVF4ORCq8SEltG/uU0quvvppOPvlkOuaYY6xOdVQT258Q/WFKqVqNT+bVMfvDG1TAv4T3L4CKZPqQyJ7KhIrrr7+ejjrqKMd0YBhheCOMEzTZdykNqkRYpyKo5NSdB6gAVLAEdPhrFGqqs+NEXJmh4pRTTpH1E/y/pQfSH9FCRa3liULNRJit4yGQ/vAGFbW2P/PFBS2+jsOUfEBFMn1IZE/FgwzXUXz84x93vSaMEFBRqhiIVERmfpFdCFABqGAJ6PDXgIrIzDZ5F2Lq5cWtKq2oqUNJ7ZJFf2ohBpGK5NkxPxGgAlABqBASQKFm7R2c1w3FSu+0nsN3jQwx1aBiamSEWnrzG+qVOxCpqL3dlt4BoAJQAagAVMTCMwEqartrqO4cayWo4B17B2faaZq6KGfs1OumpICKWJhu0U0AKgAVgApARSw8E6ACUOFXEQEVfiWmvj2gAlChDSoWFhaK9v5YXFykZcuWObR89+7d8m/Nzc2Bf9u8ebPcyyNJ61TMj6RpoiNDvZXiwdV8htgGPTXXT1n7RcS27OmJDsqEunC1jqv/vm7dOrr55ptd3zufrVJf3O4O/QW3Py/yXLt2LW3fvt3VB1TXlnwLbVBh2M0YddNQa5Yy67zeobPd/Egqfw3K26J1TePfRbYZvJuanclQsWPHDtqwYQMF9eWw93Djnxf7M9sEfUeVztP1/hquUJMhYGh2hkZHiYaH26ivb5Tah3P5AV0M5KmWPhHebafhXFaCQsX24i0Vfp+mnsmlvGNzuQ6xAxycoenpNppcylCR/7NDhXluezv1dI3VHCoQqUCkwu9IqBcqjqW2vvNolHpoMreKBn3ab/7ZpijdtD5/jUmiwTnbNeW/DeB3s2u/wqlRe0Qq8oKPw5RLuwoksfC8AaEiJb5rxijbOkRN450kxndKp4kyggam0ima6xcwQQIuhlopK/7GXzDl2rNyWL93TFjnuF1HQkVpNMLULttv1rm5Cu01OiZABaDCr7rphYpCVKFz3L/9ms/mJVLhatd+hVOj9oAKQAVLQAfE1B4qxIDatF6EDcyjZ1IM9PnveBWzP6x0hTVo52xQ0UTWrRj3Ual9HirM9If42knNUb8oYMuJgrbS63iDCqKR1BC1ZkUkIybpD0AFoMLvOFg7qPBvv/6gwsWu/QqnRu0BFYCKhoKKtMhkuuVD9UOF8aVjq4+oDhVGLralEN2wvmjsdRaIVFjuNOh0U11GkfTwZKXnqzal1MuYWDuo8G+//qDCeX0v8ohDG0AFoEKX/4xZpKJQy1CLSEWhFoKsOovqUJGm7q2jolbCdu9W7rVwHW+RCltdB2oqXH2xjvAdoGJbXRVqylTmerLVVHi3X+tdy4ipuIZZQ2Fe07WmwmbXcSAGD/cAqABUaIOKXbt2Fc3+ULnhiOsupcKYdUYqPNgfmtgkYN+l1E0wKvUF/RUkEDS6U60wrfT9YUOxZJo/NhTzBhXwZ+FX7K39LqWNBhW2KEZezYujM3FzaYCK/6Hly5c7XouuQd7sWFd/gIq4WWA09wOoAFSwBHRAUyzSH4hUROM4VFwFhZoo1PSrV9pqKvzeWAO3R/rDG1QgvRpBpGJJHLpyyN3d3dTV1ZWoxa+S7qcAFYAKvzoOqPArMfXtARWACpaADmiqfaSigj2pmP2h3nyT1QOgAlDhV6MBFX4lpr49oAJQAagQEgBUqHc21XoAVAAqqulI6e+ACr8SU98eUAGoAFQAKtR7Gg89ACoAFR7UpKgJoMKvxNS3B1QAKrRBRc2nlCL9od6jhOgBsz8w+8Ov+gAq/EpMfXvM/vAGFTpmR9jfdhL7q/2UUkCFeo8SogdABaDCr/oAKvxKTH17QAWggiWgA2JQqKnenuu6B6Q/kP7wq8CACr8SU98e6Q9vUKFjdoT9bSexP0CFenuu6x4AFYAKvwoMqPArMfXtARWACm01FVinQr1B13MPgApAhV1/p0ZGqKW3l+x75ZXqN6AifhYPqABUACqEBDCltPbOCVABqDC1cCrdRIMz7TRNXZTLlgcLQEXt7bb0DgAVgApABaAiFp4JUAGo8KuIgAq/ElPfHlABqNAGFZhSqt6g67kHzP7A7A+/+usbKsSmgqm5fhqjbhpqzVJmnd8eS9qLTfvSEx2U6a2UpPHRh3F/WZfrzY+k8vcs9lrmZ3Br46MnZU0x+8MbVOiYHWF/yUnsr2GnlCp3BsIRNa0fpfbhnHQ08yNpmujIUJFfKnVWUTvDCFwUoAJQ4VeNgkHFsdTWdx6NUg9N5lbRYEufSLMUdvBl+xmanaHRUaLh4Tbq6yvYlnV/5g7A7e3U0zWWhwprV2DbbsCGbRbvEDxF6ab1on+insmlPCQMztD0dBtNThINSugZMu5hOt9mnXmOuGejTbZjglIu9969dVRcy7h2WGjy+0JEe0AFoIIloANiGnT2h9MZFBxGGafl5pxM43b8Zl7fzSmaDkmcbEKF6YjszjCA41BxCtIfSH/41atgUFGIVHSOp2iuP0u9NEKpoVbKitAFfwR0i2E92zpETeOdtJQhSqeJMrawxlTaOC9XiBpYf7Ndy/rbynman19JKyV7GBGHFqPPzvFC5MEWSZH3wPZquy97pGJgttv13msdzUD6wxtUJHGKp91+dTxfLKCiXEW5ykLN0kgFh14rOS0352S+LNffhCOyb+luOUWbQzKhwnJENmfo15Grag+oAFT41a3wUNFEIsiXP3omBUAwVBiRPstGciVQMU8jqSFqzWZonS3ix8WlpdcqRC8KkYOpPKGQFUSwRxEtqBgyoo3ioyE1R/2iWFV0akt/dFHX1q35eyDRxoAe694F2ESalvHxYgAVgAqWQENARaWKcr1QYTiMMk7L1TlJPbU5M5sjYWAohgoz/VFwSCuls7I5opimP8bHx2nPPfd0dWE6lFQ3aTdyf4cffjht27aNli1b5mPIKm4aHiqMiIOtJKI6VHDgr0KkwnatQqTCPvAbcMApDQaGgVnqNmskSms+zGiGEUGpHqkwbB9Q4dCpN954Q/4N/qVYNJXkEvS3hoGKSp4rXlDhdHR+IxXS+dgcEiIVTlCBk6ltZKSWUCFTG+vJVlMhqh5Ka5LKRiqY70XqgusZXGsqCtdyi1QIJHHWVDigYojytRGl9RninqvUVMh6KkAFoKJEAkn8KItF+qMcWKiECh7QpQOzFWFJwy/ntKy6CZtzMm+8TDFYaaTCzSHJinHUVFgqAKhoQKgIHBPRe6JrsbXeWwjcG9IfSH8gUiEkoBQqAptnY52ImoraDvKmtgUNefqFtJpEKurEpAAVenLyjZx+1G3vKvprWlhYWLK/xMXFRdd86u7du2Wz5uZmhwvw+tvmzZvpnHPOIR6ovByACi9SUttm3bp1dPPNN7u+d+5Zpb64PRn6C25/XuS5du1a2r59u96aCrUqjKsLCXCkYseOHbRhwwby6q+96IvZJug1K50H/xJuvK3V+2vc9AdcjScJIFKBSIUnRbE18l2o6bcDtPctAaQ/8iLzG7lT8SVvf3moqRDScKvS9Rqa7e7upq6uLkQqfLuE2p0AqABU+NU+QIVfialvD6gAVLAEdEAMIhXq7bmuewBUACr8KjCgwq/E1LcHVAAqABVCAqipUO9sqvUAqABUVNOR0t8BFX4lpr49oAJQAagAVKj3NB56AFQAKjyoSVETQIVfialvD6gAVGiDCuxSqt6g67kHbCiGDcX86i+gwq/E1LfHhmLeoELHhlv2t53E/hp2l1L1ZpyMHgAVgAq/mgyo8Csx9e0BFYAKloAOiEGhpnp7rusekP5A+sOvAgMq/EpMfXukP7xBhY7ZEfa3ncT+ABXq7bmuewBUACrsClxuR2F7G0BF/EweUAGo0FZTsSQOXeSEdSri52yq3RGgAlBh6kilHYUBFdUsqba/AyoAFYAKIQFMKa2tI+LeARWACr9aiEiFX4mpbw+oAFQAKgAV6j2Nhx4AFYAKD2pS1CQMVMyPpGioNUuZdZV7tdpRmuROv70rfd2m6+ZgYufiomuJ3YfTEx2U8XPt0mv4uit1jQEVgAptUNGIU0o9ORSbfQfdnbDUQXrqN4gjU+eLZKTi1ltvdV2enbvVUU1sfzz0t6fjbXtdJt9NTUrlefTRR9O2bdv0bSgmBuGm9aPi1tppODdAsy3raZR6aHIpQy0CMFr6puVt90wuUYYBYnCGpqffTutoSvxHtJskGhRQMUZD1L11VPxmtJVQMkXpJr5eO/X0iH92FmCFbXFodoZGR6fz1+b2JhB0TFCqpY+m28V5XWNFUFH2PHlfbdb9ZHtzRt/G/bSM5K8pnzNLfjglCvPG7A9vUAH/Et6/xGJKabniL1Xpj4oOxXIGBUfUP1figNwcRJFzZKdhOrS8g2SfFdSRReFUgl4DUIEppX51x0+kYiqdorl+tpd5mp8X0YYJl0iFOdi3DlmRhNJIxRh15yMctshFAernaSTVQrMDBjxIW0yJM8YoywAx1EpZpgqjn4HZ7vw95ZxRkErnyWiJcQ3rfthXiOsP0GD+mpT/t+xP4wGoAFTo+gis+eyPSsVf6qDCcCg2J+VwBusKjqh/rri95XRsDqLUOa4U/sUZqQjmyDT6HkdXSH8g/eFX//xAhTAS4ws+/0XPtmalP2y/tQ/nKFsRKoZooiMjB20zZTGVThNlTKAvhpVC1FDAf2qO+rO9tFICQRd1bd1KrVlxnkvUsPx5RgrGApMhq28ZM0k3kQzI5MMutFQDqOCuzzzzzIo7dWIXz8ayd9O2g0Y73c6rOVRUcljqoCLtcECFr5SCMzChgCMVdofVOdvidBAlzpF9Rvn0hz9H5tepR9keUNFYTubwww/Xmv4owLiwCcEA/asGLaiwoMBTpMIJFXb740F9vLM4UiHhxYgk+IlUlDvPNVKxLm/rx7ZtpVdkRCZK6/R+LdRUeItUJHHdCLuW6Hg+QIVZiFUatpTR0LwjckKFER61OYhS55gRVOEWqQjiyLy7juhbAioAFX61KkykgtMXogyiuKZC1Da0tw1QtnO8UEgp042ina2mojRSUaipEBUb4hptA8U1FfkaDFuNg8eairLn2dIf5WsqxL1w1EUzXQAqABUsAUDFM8/QOeecQ/feey/ts88+fn1b2fZWCNMWKrWKtGwFVqYjKoWKjFnIJXqwHIRLpIKvaTpIs6YiiCOL7MEDXAhQAajwqza+oMLvxQO2L0B/wAsYpwUt2g7Xa/izARWACkCFkICq9IdXE43KEXntL47tABWACr96GRuosIqnxRNEVMcAqGgsezB1P8qaA93pCN39xWL2RzmnVROoUOCI/DrlOLXH7A/M/vCrj7GBCr83nuD2mP3hLVKBKaUJmVIaK6hIsGMJ8miACkCFX70BVPiVmPr2gApABUtABzQ1ZKGmehNOTg9IfzRWuFf37I/kWEq8nwQ1Fd6gQkcho+50hO7+ABXx9gU1vztABaDCrxIiUuFXYurbAyoAFSwBHdAEqFBvz3XdA6ACUOFXgQEVfiWmvj2gAlABqBASqEmhpnr7rqseABWACr8KC6jwKzH17QEVgApABaBCvafx0AOgAlDhQU2KmgAq/EpMfXtABaACUAGoUO9pPPQAqABUeFATQIVfIWluD6gAVGiDioWFhSW7fi8uLrpue7x7927ZrLm52WEOXn/bvHmzXCGTByovB9IfXqSkts26devo5ptvdn3v3LNKfXF7MvQX3P68yHPt2rW0fft2fVufq1VfXN2QAEPFjh07aMOGDeTVX3vRF7NN0GtWOg/+Jdx4W6v3h0JNuJ2KEkCkApEKu4JMjYxQS6/Y0bOC1iD9ET+ngkgFIhXaIhVL4rCbgMopJ93d3dTV1YVIRfx8Ttk7AlQAKkzl4A32BmfaaZq6KMdbhZfRGkBF/AwcUAGoAFQICSD9UXvnBKgAVPjVQkCFX4mpbw+oAFQAKgAV6j2Nhx4AFYAKD2pS1CQsVLhu2mVuS25uGS52BU5PdFDGvoV4aRu/N66g/fxIioZaC1uuK+jC0yUBFYAKQAWgwpOzUN0IUAGo8KtjUUDF0OwMjY5Oi81FlyizTtyBCQwdE5Rq6aPp9nbq6RpzhYoxGqLuraM0Pc2bkxrn0xSlm9bTqLiU/BulKTU4I9q00WRuFQ3yNamdhnNZYk5hsMnfA9HwcBv19Y1S+3COsjaokfdRck5xv2afPTS5lCF+jFodgApAhTao2LVrV1FNhcoNRzZt2kRnnHEGaipq5VkC9IsNxbChmF+1CQ8VKeqmMcoyQAy1UpapwoCKgdlumusXA39OQMFcf2GQ55s02oyJs2V0gMHBaGNFDFpG8tfsHLd+m0qn8tck4zfRH7eX99A6RE3jnSSYgNJpoowkHO7K/Zyy/daSKMT9YkMxb1Chcvxzs6Mk9qd96/PTTjuNTjnlFE9+an5+nnp6eujOO++kffbZx9M5aBStBDZu3Ei33nor7bmnc0tc7imJRmGXYKM939FHH03btm2r6ZTSQvpDfOmn5qifi0IlMHRR19at1JoVX/0V0h8cqZjoyEhIMFMkU3kiKEQLbKkSLkBdzyEMPnomBUAwVKTz17DgJVcCFRXOsfUbp/THm2++SWzPb7zxhnxUN5uu9Bvs3b/MGlGeWqeUfvnLX6ZbbrmlaNTjecpua1+Yk1JY8VeuXElNTU3WeeZv9r+ZP1b6jdvs3LmT9t57b8fIG/SafN4rr7wi54AfdNBBjuuq6I87cXt2Fc/Hu1ZecsklZaFC5WwhNzxCf064CzNIlMozDruUOqIKviMVTqgoDO4GqAzMUrcRxbCiDrbpLNWhwohUuJ0TU6hgezrzzDNDQQXsT639mT4vqE1Xgxgd708rVCR1kHjooYfonnvuocsvv9zxiDpeor1T9Aejt+uDXycTD6hIGzURhRoHvzUVpZEKkbBw1lSY6RMR9cjXR5BVN1ENKkQoo/w5Nqjg+xalHKipCBgZgT+rP38GqDA8cBgyBFSscMBUGHmWC83y3+Fk1DqZOECF28cH/hZOAijUzMvPL2QnIXKg+6MTUAGoQDi0zFdUI0IMoCLc4B3XswEVgApd/gxQAagAVAAqrLEQUBFXLAh3X4AKQIU2qNA5pdTNLJJQXf/www/TvffeS5dddpnjEZPwfJXSEXi+aNMRtZZnHGZ/hBs+cbabBDCl1BtU1Nr+VKdbdDyf1imlSYKKV199Veb3OUc3MzNDDzzwAJ1//vnyEd/61rfSe97zHvn/dbxEu1zRX7IGed1OBlCRTCgBVAAqdI1HSH8ETH88+eSTtGXLFrmN8PPPP0//9V//Rccee6y82qGHHkrnnnuu/P8oLIx2kIc81coT6Y/kQgU/GaaUll+jA/46mnU4ABUBocL+BYnZH5j9YR+Kgs58iYNTA1QAKlgC5Ra7A9SrhXrVkUkd7w9QAahAoSacqDWSAioAFYAKfCSF+UgCVAAqABWACkBFMlnCeirM/vBWU6HjS96uaknsD1ABqABUACoAFYAKKQEsDtVYuxKrSLdg9kcEUIEppcsdLjloXUE1p4bZLdHmdEvlidkfyaQLzP7wFqmAfwnvXwAVAaECU0rzgoMRhjdC+zBWa3lWg4qpkRFq6RW7hlYYe8NufZ7MYb22TwWoAFTo8tdIfwSECvuUUh4IODfGRW58YEpp5TBq0CgGyzaJOcg45VgrFWryFuGDM+1i460uyvF25GXGSUBFbQHCrXfUVHiDCviX8B9JgIqAUGHPRWFKKaql7Y68nqEJsz/iBwRR3BGgAlCh66MMUAGoQKGm0AHMy88bQr1CxfxIioZas5RZV3kILttObGWenuigTK97/MXr9aMAABXXAFQAKgAVYvlrPtycfdy+BBGpQKQCkYqCBLSkP6bS1LR+VHTaTsO5AZptWU+j1EOTSxlqEYDR0jctb6hncokylKbU4AxNT7+d1tGU+E++neQPAROplj6abm+nnq4xCRUMEEXnr5uidJNx/dwqGuT2st8slWEQFVwQ6pqACkAFoAJQ4RuodCmN3bshBxk+BxknedZLpGIqnaK5fh7U52l+XkQXJlwiFQI8UnP9lG0dyv+vAQz2iIZ1nZzR1k4J5vm28zrHjX5JwMhQK2WrhUZCoUB0JwMqABW6xgekPwy7DRr94PMQqUCkApEKzZEKM8JgRCP652xQYfutfThXASrmaSQ1RK1ZEbWwpz9Kzy+CiiaSAZJ8GISWABVSFGH8J5+P9GMxQNazPJsWFhaW7I+zuLhIy5YtcyAyb5zFR3Nzc2S/8YWS0N+jjz5K27Zto82bNztkk4TnK/fek/L+8HwFe1+7di1t377d1Qd4/W7Wkf4oRCpEaiJN1L9q0KqpmOI/ZAQoBIxUOM53i1RUmlPrVVAa23GkYseOHbRhwwa5CWIQXw57x/hXqrJuuoRIhSGlMGSISAUiFXZjC6pLfI1ap5PqJf1h1ULIgEG+bkKUPRTXVIg6ifa2Acp2jlvpD5K1GPl2VWsqzPM5GmGeZ9VUiGoOjoLUSVEF0h95C622uF6t7c/0I0F9SByeD1ABqAgcuozDIJgEI7QDSa2dWt1Ahcav/CR0BagAVOjy14AKQAWgQugAcrp5QwBUJAEhnM8AqABUACow+wOzP1z8e62/5JMeGQFUACpYAoDsYj2o53SE7kgoIhWIVCBSASdq+R1ABaACUIEaMbsV+AUqbCgWAVRgl1LsUhrGCO3nxn1DMS9Dro7ZH17uA20KEsCGYt7SH7W2P9WRUB3PB6gAVISKVOhQ0jgNukkw+kryrLZLqZeBGlDhRUp62wAqABUsAR3+GumPCKACU0oRLowqUlHrmhGkP/QO9rp6Q6GmN6iotf2p/mjR8XyACkBFqEiFDiW1O170p3ZZcECFrmFebz+ACkAFS0CH/wRUACoAFUIHUO2eNwRAhd7BXldvgApABaACU0oxpdTF4+og7UaOjAAqdA3zevsBVAAqABWACkAFoMKSgN9pXV5ys25OBlChd7DX1RugAlChDSp27dpVtKGYjupQuyEloT9MKcWUUrtOBwUAvkat7QGzP3QN83r7wewPb1BRa/vz8jEQd/+CKaUR1FQAKgAVjQIVUyMj1NLbS5U26cSUUr3A4KU3QAWgQtdHCwo1I4AKTCnFlNKooKLWNSOV0h9T6SYanGmnaeqiXLY8WAAqvAzzetsg/eENKmptf6ojFTqed6Xj4gAAIABJREFUD1ABqMDsD6EDmP2RNwTUVOgd7HX1BqgAVGirqVgSh12xdZBM0vpDpAKRikaIVHgdAGMZqZgfofREB2V6XRI3lX4TDz0/kqKh1ixl1nmVQPzaASoAFYAKzP7A7A8X3wzoxeJXlloIGEi19Il0TDsN57LUMZGm7q2jND1N1DO5lIcAs017O/V0jRVDhctvDBAtfeIC4shfY4rSTetplHpoMreKBm39ufFJ/HAif0eACkAFoAJQAagAVFgSCFrxXek8NydTT+mPqXSK5vqz1EsCLoZaaWzVYD6iQGlKzfVTVoz6Vptc4W+mUCv9Jk60rmFGKjrHi/vL1lHoAlABqNAGFZhSWl3Zqjl0zP7A7I+o0h+1ntJWT1NKuXB0/agh+Z5Jyq0ap4mOjISMfKqDaCQ1RK3ZDK1zpDjm3X+zoh9E7cM5CSYFqCjub6nOoOLNN9+kjRs3hqqhqrV+mnZWzSdzO7c6qWqQjecLHwnFlFJDS8MoKUPFD3/4Q7riiisc39ZQ0vBKahcq5KlWnvUFFUbkwCiTmB9Jl0CF/0jFVDpNlBEQUilSUWk+bUzzH5hSWv3jkVvAv4T3L5j9ERIqfvazn9G1115LL7zwAn3yk5+kNWvWFLkV1ACEV1K7QCFPtfKsp/SHVS8hFISjCmM05ICKwDUVogajvW2AZIpDAIYoq7DVVBSiGDFlCMdtIf3hDSrgX8L7F0BFCKj4xje+Qdu3b6fNmzfTqlWr6Prrr6fnnntO/nvFivyMCChpeCUFVFDgkHW1cG+pftYVVNTLiB6D+wRUACp0jUeAigBQ8eijj9J1111H69evp66uriKX8e///u/ytw996EN09tlnAyr2BFR4rbfQZfSVIA1QEQMCUHALgApAhS7/AqjwARXcdEQsU/zyyy9Tr1iq+IADDihr/t/5zndkncWf/Mmf0EknneRoF6aGgy+GxZqKRQp5BitMQ6RCwQgew0sCKgAVgIqYTSm966676KabbpKpjT/4gz/w5DZ++ctf0vDwML3jHe+QENLc3Gydh0EwmkHQFCjkGY08EanwZNp11whQAagAVMQEKrhGgqMTBx10EH3qU58K5EzuvfdemRK54IIL6OSTT5bXwCAYzSAIqAiuS25OBlARyMRjfxKgAlChDSoWFhaKluleXFykZcuWOYxk9+7d8m/2r22zUdDf+Pw493fbbbcR109ccsklshAz7MFg8eyzz9KmTZvoXe96V8PJM+n6koTnW7t2rSw+dvMBXvU/lst0e735hLZjqNixYwdt2LCBkuqvk2B/YZ+h0rvVNd6ipsJ4i/bIQaVCzLA+56mnnpJRi+OPP57OPPNM3wu0+K3mx5d8tF/ySZcnIhVhLTye5yNSgUiFtkgFNhQrKBsP2H/7t3/rqRAzrOvYunUrTU1NyVqLww47rOhyQVMjupTGfrOYMpus2S2AirCWHc/zARWACl3jAyIVhg+YnJz0XYgZ1n1wISdHLfbff/+iQk5ABWa3lOpWUJ3wG9kCVIS16nieD6gAVAAqNBVqRlGIGdaNlBZyBh1AdCkNIhXBUyp+B3nd6RZARVhrjuf5gApAha7xoaEjFaUrYtbaHZgrcl544YVyRc4gG+IgHZGsdETcoGJKzIRqESm7SttfoFCz1p7E2T+gAlChDSoacZdSjk7wAP6Rj3zEsSJmrd0Br8jJU1g/+MEPyoWz/ITBuS02xIkWKhpNnpU2FONdQQdn2mmauiiXLQ8WgIpaexF3qMAupZUjjPCf/qf5u0VeG2qXUhbANddcQ2xc1VbErLVbMFfkvOiii6itrc26nWrh80YbBFV/ySdBnjxt+5VXXqEDDzzQodalz3fUUUdhSmmtjV9B/9il1FukIgn2zk9absVlHc/XMOkPXjL7xhtv9LUipgLb9nVJLuTkqAWvyMkrefIaIdWgAumPaCMV9SxPnrP+xS9+kZ588km5eJuISsoF2FauLCQvzOd78cUX6Vvf+hbdcMMN9Mgjj2CdCl+WGv/GSH94g4p6tnd+wjiMD4mHikgLMcUWyKm5fsr2VsooR+9g7rnnHjlLhFf0NJcIx94fxXIOWtwaByO0P0mUTq2/v58+9rGP0XHHHSe7+L//+z+67LLLisBidnaWfvSjH9G//du/0caNG+kzn/kM/fjHP24IqJgfSee3SvdrzqV+YH6E0hMdlPF9oeh9RbkrAioAFSyBKP1LOYhJNFQEK8Scp5H0BHVkOmgiNUSt2X6ak/8WOWTDmYzREHVvHaXpaaKeySXKrCNiB1X6N/FHSrX0iRx0Ow3nsnnnxdcYnBHnttHkUobEqZ4PrgP5+c9/LuHife97n+t5OpRG1SAYF9JOwvPxILLffvvJnXTtx+uvv05/9Vd/RZdffrmMTDz88MNyN11eSZOPI444IpZQwfY1NDtDo6Mk9tNpo76+UWofzhUA38XWqp1T+H3asmOHzeZc7NWEio6JvH23t1NP1xigQuiP3+LyJEN9o/qzxEJFd3c3dXZ2BirEnEqnaK5/gKh7nGisk2aHiDJMDhZUdNNQa5YyVIhczI+kHH/LX0fABAm4GGqlrO0aQaMdXMg5MDBAq1evpj322MMBFnFe9ty8WSwT7L7cPcsnqvfHKY8vfOEL1Nra6tARToFwMSVHMkyYMBvFdUop21c3jVG2dYiaxjtJ8Dil04ZdSlZ32lq1c6zfGQ4M+3Rcp3PcGZ00/MDAbHfevhk8ahDB9Pw1IhoiUoFIBSIVIdepuOOOO4gXtOJaBB6AfR3CaaTnVpG528csGaFNW6RChk0FLJhhTyuUavsbV8uvF19W8uiZFI6wACZBoIKpnmssXnrpJTrllFNo7733djwW58a5BqP04OJUPtxAJOhvfD305wS7OMiTV2w97bTT5HLwpcdHP/pROvTQQyXA8FLxxxxzjNUkzpEKaXPWAJ4rgQqnrVk2WeacQvpjitKpOeoXM1pypTZbFiq6qEvIuDUroo1If2CDxABRGl2DvN3+dUSyEz3744UXXpBTR3nzLp7t0dTU5I0t2El0z9KqgVU0Oyj+d8zIu/qGCuPryZ6zDViXwYWmf//3f0+8hsUJJ5xQ0+peuxB1VBOjP/+LbT300EN09913y6iW/bj//vspm83SX/zFX9BPfvIT2rJlC+3cuZPOOussCRf1CxVOW6sOFUZ0saUQSbQiFabNutlrnUYqMKW0eiEj/Fn4QvdEQ4XpTLnQkeHi4osvpjVr1ngAC/Hl0jROnUudNC7/16h98AkVhfwsFfK/PqHCLDTlGgoOW1fLQcIowhtFUiDmwQcfpH/5l3+hD33oQzJ69dOf/lTU8kzLtIh5sL7wdFMOj3MEjIs2uU3cdimtBghutlbtnEIdlK3myarNMGxWpFscqY06rakAVAAqdIwPia2pcCsY4hkUXOh46aWX0rvf/W4PcFHbJmNjY3LNAI6ymFuvV4MKHeEt3eE09Oc/UmHKjAGBZ3NwNOL973+/o8bIri/z8/PU0dGBKaW1NXslvaOmIi9W+M9fyNWaS48oZ881FFSwIO+77z665ZZb6MMf/rAM+cbx4K3XuXbCbcVPGIV6o2hkiIlroWYc7bSe7glQAahgCej46Gw4qDCF+u1vf5v++Z//OVghpyJvwuHJ4eFhGYbmlTSXL1/uiyh1KU0jD7rms0dJ9nGSJ6BCkXHX+LKACkCFrvGhYaGCBcyFnBwReOc73+mvkFOBg7jrrrtkISanOnjfDz78zvnWpTRxGgSTPsjrfj5AhQLjjsElARWACl3jQ0NDhWnrXMzGcOG9kDM6L7GwsCD75kJMjk7wEfQrWJfSACqCv6O4p68AFdHZdpyuBKgAVOgaHxpi9ofduCtVv/K+Bxy96Ovr01LIyYWY27ZtkzBzyCGHWLcZBip0VPd6lWeQaEu1QRfPp3Z2S6VdSr0Oktil1Kuk9LXDhmLeoAL+Jbx/AVQYdm0OZuwQv/KVr9BJJ52krJDzsccek9GJk08+mc444wyHZwFU1HaXvUaGJoYKXhPlbW97W+ARj2eR8Gqdt99+e+Br4MRoJfDd736X9tprL7m/C/wL/EupdgXVCdetz5fEgXC2M5ytopCTCzEZJnbs2CH37+C1A/zWTVT7ktdR3Qt9SW76g/cB4U3GTLfgtmBctd/493322YcOPvhgx8jIU1vdVoKtdk2+kN974XPc+uNl4ufm5mR08LXXXiP+OrXfa9B7Kdcf/z3oNSud57c/Tq+2i31Kgg4gusLn8C/17V9QU1ESqbAP8mYhJ6/Iyct9e16R0+Ujw16IyYsRBTVsQAWmlEb1ldGog8Srr75Kn/zkJ+XU8qefflpurHb11VdHkn4E1IcPnwMqABWBB8h6cWo89dTfipwFs3ArxORfARWY3eIW4MagpH5QAlS8IVXPb5S0Xvx1UN+K5/OvE0h/CK0J47S5kJPP52mfXlbk5K3Xef+FT3/609aKmOZAElTxEalApAKRioIEgtgDoAJQ4QZUgApARU1Im7ce57qISity8oqYvCT4+vXr6cQTT1S+LCrChYj84MvTGeEoN0gAKgAVgIriT5MoP3JRU1GhpqJSVMGtkNPcmvzll1+W0YwDDjggVGQE4UlngiBMpAnyhDxZAoAKQAWgQiFUiJx/0eyPxcVF1x0KuWKaj+bmZodnCvobX6ie+3vxxRfpq1/9Kv3Wb/2WrKr+0pe+ROeee678/+ZRz8/Hz1Dp3db7+8Pz1bf9BX1/POPjkksuob/7u78jnkLOU18vu+wyy2Yb1Z8FlWe18yBP93Ezqf4TkYqAkQp7FIO3VudpeLyIVemBL2v1hXcs8yjDd/Z3iPeXvPeHSAUiFYhUKIxUYJ2KvHAxKPkv0mG5YdBN3qCbdHsAVAAqABWAiiIJBAUADIL+wSFIdX3SByU8X30PSoCK+n5/sL94vz+kPyJIf/AlQL7qyBfpCETSytlYEOgFVMR7UIK917e9AyoAFYFTP4j8IPJTWkMUZJDX/eUJqABU4CNQ3UcgNhRTDBXY9S7amgPIE/K0u8NqEOOmLwwVf/Znf0a8SzDvAcI7eF555ZXWZcOkV6Gf0M+w+qkSsnXoJ6ACUBEqUqFDSe1Giv7gtMM6bYaKTZs2ySngP/vZz+SurF/84hcBFVUK1llAsD/YXzX7Q/pDMVRgdkS0Rgh5Qp7VnJpbTp734HnggQfowQcfJN6ancHisMMOo+eff574N96x9L3vfS8dd9xxcp0ZXo8Hi6WVJrcw28uvTlSLpCXRnwEqABWhIhVJNAoUitV3oZj9/TFA3HnnncQL1f32b/82/f7v/z69//3vdwDD66+/To888oiEjlwuRyeffDKdfvrpjlG1EQcJ2ENy7EGHvwZUACoAFUIHULilrnCrVoMS7y68ZcsWuc35mjVrnJ/dFf7C5/E+P7wZ4PLlyz2lRriRDqddK3ni+VCYXWoy2KUURu87pIsvM+yK6sWRmG3ioi+ZTIZ27txJF110kS+YsDd+5ZVXqK+vj/r7+6m1tVX+FJfnM+8TEIN0YJB0YFQ2DagAVAAqSqwJg0TyoOmf/umf6LnnnqN0Oh0YKOwn/uVf/qW81u/+7u8CKn6RPH1B5Cfa9A5mfyhOf6BaOtovCcgT8qz0ZXbbbbfJIkye3RHl8ed//udy07F3v/vd8rLl0mXQT+inn8hBEvUFUAGoCFVTkUSjsDsFPF/9DBKPPfYY/fjHP5Ypi6gPjmjxzqZ/8zd/A6iw1Zh4SXth3Y/GglAUaiqGCuQ8ox2UIE/Is9yX4Kc+9SniVMVBBx0UNVPI633nO9+RdRpnnnkmCnt9pBHDQAXsvf7sHVABqAgVqYDR15/RJzGHfN9999EzzzxD559/vhKgMC/KK3Fee+21tN9++7n2A3uAPfhJfyRRXwAVgApARYUceRKNPolQcfnll9MnPvEJ+sAHPqAUKm6++WZ6+9vf7rqGBXcMfQFUACqWlpaS6GSw7kCxbw0agsTsCFS7l47SQXVJ1aDLUz956ugtt9yiFCj44rx2BfdjX9Yb/jPa2QOQZ33LE5EKRCoQqUCkwjEYBwWHWkDo/fffT88++6xc5MrTMZWmpvWjhaY9k7SUWefpVG506aWX0uc//3latmyZ4xxEKhCpaPhIxa5du4oiFah2j9YoIE/I04+Tgb741xeeRvrmm2/SOeec4w0MBFSkKUMmR0ylm2i8c8n6d7WLXHDBBXJBrAMPPNDRFO/P//tjIWKKrp7Isg79xJRSxZEKHS/Rro7oD06t0SCGV89cuXIlfeQjH6nGA/nfS6CC5kcoPdFBmd6Vns7nGSYbN26k1atXAyrgP0NFepPor5H+UGwUCIdGO8hDnpCnOZL//Oc/J45S3H777TQ4OEgf/OAHPUFBWKgYGhqibdu20ebNm+mkk04q6hP6Cf30A/VJ1BdABaAiFGkn0SjsTgHPF79B4oknnqDx8XE50+LUU0+V/8tTPD/60Y8Gggq/6Q9OfXR2dspdTZ988km5boUJF9CX+OlLow/yuv0ZoAJQAaiokNPFIBGfQYILMu+44w7ad9995aB+9NFHS92dmJigX/7yl3Teeed5hoowhZpcEMqzP3j3Ug5f/+M//qMFFzyldcWKFY77qKfC10o1DrCH+NiDWx1KLQqlS/UFUAGoAFQAKmI7CLKT/N73vkff//736ZhjjqHTTjuNDj74YOt++XeOFvAmYgMDA96gIkSr//3f/yVeuZPXq7AfJlw8/PDDdO655zrSIoAK/9uGs3wBMfUHMYAKQAWgAlARO6jgwYSjEnfddRf98R//sUxzHHDAAWXv8+yzz6avfe1r9Na3vjUEMlQ/9e677yZOv5TbX4QBh9uUpkUAFYAKN+1KIjQBKgAVgApARWygYm5uTsLEf/zHf8ioBM/o8DIg33TTTXI2hudizer84Nriuuuuo2OPPZba29tdfzcHidK0yIknnijb+w1ZxyGcbX/QJA6CeL5oF9tqWlhYKFqnYnFx0XVRl927d0vZNzc3O4wp6G98IfQHedoVqpIuQV+Sa3/T09P0gx/8gN7ylrfQ2rVr6aijjrLUwot/4UH8+uuvd6QlArKD62kMOldffTVdccUVrn7QTT+51oNnpzz99NOyDuSEE06A/7RJAPaevPEWkQpEKjx9CWLZ8+KxwMvXs9+vUu6hkb4EeYcAjkrwTA4ucOQ0xyGHHBI4anLDDTfI9SoYSlQcvIrmunXr6Mgjj/S9S+lzzz0ndzl96qmnimaL8H0G1aVG0xf7Ow0qM0R+1G87AKgAVMCplQlLw2mrCdczbDFMcPElpzj4C/43f/M3pSX6BTH7IMGQwjMzbrzxRtp7770j5Qpel+Jf//Vf6cILLyx7n1705Ve/+lXRbBGeihp0gPTSXxh5ugmwkaAXEJOXgF/9BFQAKnwrjd3Y4GTqrzq7Vu+Ptyb/xje+QbxoFcME/9c8/Dqucuc9//zzdNlll9GWLVsig4rHH39cFoGOjIxUtBU/g7y95qKrq4s+/OEP+wYqP/1FMUCiv3DQ2yiQBqgAVAAqEKlw+LuoBnm+MNdLcIqD8+dcsMgzOUqPKPt76aWX6OKLL5b1FeXSdl6Jgxe44pqIq666qupXW5BBl+Him9/8ptz99KyzzvI1FTVIf0G+PGsFoXi++oQYQAWgAlABqFAyyPPaEZzm4DoHjkqsWrVKW80IR0N4O3TeUTTojBAGoccee0wWZnqJqIQZBBkuvvvd7/qaihqmPz7Xb2oE/fmXWSPWcGBDMcVQkcQNY+wjEJ4v2vRHvcvzxRdflAtR8SqXXNTIUQleedI8dD8fA8Grr75KmzZtct0ArJSmeDYaR1Z4k7KPf/zjdPrppxc1qTZIhH0+Pp8LOjlyccYZZ1izRbCLZ/GbijKyBX/mv26iEmQDKgAVoSIVYZ2onzA4t0V/8YSYn/70p7Lw8tFHH5WzOLj4co899nBEQGrx/l555RV5bw888AAdd9xx1NraKhfSYtjhFTIZhBg8GCZ42ugf/uEfEtc5uC2kpRoq7PDFcDEzMyPvZc2aNQ5Zwh6ijxzUQj/t0O0lIhYUqHTpC9IfiqEChYzRDoKQZ7zk+dBDD8kUx2uvvSZBwkw1xHEK8q5duyRY5HI5uVcI3zPXebzjHe+g97znPfR7v/d78r9hnHbU+llpKirSEdFDRdTvrxqEJrE/QAWgIlZOtBGN0P4JWi9Ohheq4hTH+973Plkv0dbWJh8D70/NOgBuU1EBFYAKv5FeHf4FUAGoAFSUKVqD0y522lxvwFEJng3BUyA3bNhA733ve33VHOhwavUIaXzPXgonsStq/u0GjSYBetVAr113ARWAisAGikHX20BgH+Tq0an953/+p4QJTh1wiqOjo0MuLuVlECz9kgJURJO+wq6ob0jV8quD9Wh/fqIRcXg+QAWgAlCBSEWp35I6wUWXPJPj17/+tUxxmMWCQb8SAaHRD4LYFTUaSDMNANAbXp6Y/aEYKlBNHF5J7SMe5Klenrx1N6/RwAWMnOI47LDDPKc4qn0p4f2peX9+pqKGgUK8PzXvL6poRBzsD1ABqAgVqYCTSYaTef3112WKgyMTvK03bznORZhRh5ehL2r1xYSLSlNRARXuESMeCqCf4fUT6Q/FUIFwWnglTXLhXa1rDnjFyO3bt9N9990n6yU4zfG2t70tMGhW+1KCPeixB+yK6j/VhPScf5m52TugAlAReACBEUZjhLWApieeeEJGJubn5+WeE6XbhQf9mgVUqK+u96Mv2BW1GNuhn+r1E1ABqABUNFCh5j333CNhYtmyZTIywSmOFStWuBZqorreX1QhzpCNXVHzKg6oAFREntNF+NWfo4QRqjdCP1+eQWoc+B3yQlUME0ceeaRMcfzO7/yO7Bb20Fj2gF1Ry09FhT1EE3lFpAKRCkQqEhqpeP755+VCVXfddZdVL7HffvsVRSUAFY0FFebXOnZFdb53QEVEUCHWw1+yexlUv0brZCBPyNNuX9UiP1Hoy+zsrNxA69lnn5WzOHi3UOxy6T23HrSehHuI4v3p1Bc/U1Hr8flK83o67E/n+4vj82FKqeJIRb05mTgqqVfoXVpaIp4a6ecZqjmZF154gd71rndFdk2V/T311FO0detW2muvvWj9+vV0zDHHVM0h19PzVUr98I6ib3nLWxzvSYX97dy5k958801HX/yHepUn3/f3vvc9Yh06++yz5W6ubke9Pp/5LKb9ccSuublZi75wJ40E9Uh/KIYKhJejjVRUkuczzzxDp59+Oh1xxBGuDrHcH19++WXasWMHHXTQQY4mPHi4beHtqwMfjcP0x5GJd77znbTvvvt67jFMf547sTVU0R9vbc7bmV977bWOW1Jhf5///Ofp4Ycfltunlx6Vnu+///u/5bspTUEFkaN5TtTyZChfWFiggw8+2PW2ou6v2rOr6I/X8Pj6179ORx11lBZ9qQQVKvSz1v0BKgAViampYKjYsmWL6+BSyXk9+OCD9KMf/Yguv/zyaj4Ov8dQAvzeR0dHtUIFz5xxG5QqiYehhyMAJ5xwQgyl2Di3dMUVV9Cpp54KqLC98qApP6xTIYSYRDK0u4NGfj5AReMMDPYnBVQ05nsP+tSACrVTyBGpQKQCkQpEKoL651icB6iIxWuom5sAVAAqHMoaNFTDF2rkL/lyubakyLMeIhXzIylq6ZvO63TPJC1l1sn/6/r3qTQ1rSeaXMqQ0YpGUi00O7BE/XO261A7Deey1JtLU5oyZFySSJyf//e8PM/s1uw7t2qwcC/ij+3DOcq2Dok+R20212PrP57jBqAinu+FdXqoNVvQx5jcJqACUAGo8Jj7anRoij1UzI9QaqiVsjaQ6Kax/EA+3mkBxlS6icY7lwQOpCk1OENtA4ZjFuenu7cSiX8zVFgO27xu53gZqDAVSMBFeoI6Mr200gAZh9O3QMQ4p/TfMRkYGjH9MT+Spu6tozQtmLRnUugHkya/+5Y+mjbBUrxY13aWwKYoLUiVsVFeo8X9/KHZGVGnQjQ83EZ9faN54OxlrclfP//7tHUf/LeJjgz1ktDRiQ7K9OaMfgSU5lbRYMk9MvCybk9Pt2mHVkCFYqgQlb5F61QsLi7KJXxLj927d8s/uU3DCfobXw/9Oac1QZ7uelZNX37yk5/IxZ6+/OUv+xr6dBVqlvtym0qnaK5fRBryPjs/UDB8CEhIza2ittlWyogRRDpu8fNsayYyqLCiJrZoRz1GKq677joaGBhwvHcV/oX168wzz9ReqGnpD8PmXL8c5C3dEYO5Caxu7SysNKMHDBNCxwZoMK97JecXwy5ROk1SB/PqmSL5e8eErc9SqFgp2zG0do4b+m3rQ0KF8Qy+jDWCxp/97Gfp+OOPp9WrV2vRl3LjZjV/Vq/jLWoqDLUKmgKotu4A0i16p5TGefZHMKjop4HZIeHR+2luJEe9rflohL/0hzWk+IpUWBGT/FgS26NR0h/OaACJtNYQtWY5PSYiEMbA72xn0ipnxGQjWzqtwvkinZYf+EXUoQgqDIBYKfpMzVF/tlfcSCWoaCIro2am/GoIFYhUKI5UiAWDiiIVGAT1DYLspYPs5VDuPP57I7+/ukh/dBONCSdsph+qpj/YqYv0SFpELFa19oovynydRFH6o/AZWpRecUKB3/QHh8rHqdOq6YgnVzQuVJSLVDgHeEekYl0eCI5t20qvOCIVxvllocJIvRnRDk7nuUVHHJGKAtvIep9aRSoAFYAKhycLGlVo9EE36RATe6gwQsd+CjWtL0VzcDdqHFyhQlyfQcLxVWhZkBMqCukP0Yi/IkvqMmQB6eyAVe8RR6xoZKgoV1NRXN9QNJp7qqmQ51eIVORrO4wCYb68LCoWRRjt7dTTNSZqKsQfzUJjq6bCKAY2fgNUJPMjEOkPpD8wpRRTSuPICp7vqVGgwrNAFDe00it2VlHcZ5SXR6QCkQpU23zsAAAQ8UlEQVREKmwSQA1H+a3I6yFSEaVzxLXyEgBU6NUEQEWxvBE5L07jY0MxxZEKFRsalUtj8N8buT8eXMbGxrBMt94xpua98XvPiOLDa665xnEvKuzhyiuvpA0bNmif/VFzQSfkBj73uc/J3XuPPPJILfrSaP4aUAGoCJX+UOG0gxrh3Nwc8dTCzZs3+3J/TzzxBD3yyCN00UUX+ToPjeMhAd5I7c4773SFSRX6yYPS4YcfTh/4wAd8CeAf/uEf6Oijj6Zjjz3W13loHK0EbrjhBjklGFBRkGvQaAv2/hAybOTZEeUG66AKxdeLkzx/+MMfUk9Pj3T4fg7e5fL555+XXy846k8Cv/71r+W25zfeeKPj5lXo55o1a4i3P99///19CevJJ5+Uu6keeuihvs5D42glwB8RHNXCLqWACksCSRkEkz7I634+horvf//7MhTu5+Dw+cUXX0w/+MEP/JyGtjGRgO6aio6ODrrqqqt8pz8+/elPU0tLC5133nkxkVxj3gYKNVGo6dB8QIX7+hZxixwAKhrTaet+akCFbonXd3+ACkAFoMImAcz+KD/7A5GK+nb2Qe8eUBFUco15HqACUAGoAFRYEqiUIwdUNOYgAahozPce9KkBFYqhYteuXUXLdKuoli4XBue/o79olwVvZHneddddchYAaiqCutv6PE/3lNLTTjuNrr76atRU1Ke6EKaULo/sQ9119gegIi/foHUa1dIRjTzIq6ipqCRPEyr6V82QY/dNuSV0Ybtwufz01i7KiX04dqNQs06Hh/xt1woq9vvxRb707CYUasZCzwAViqECG4qphQoVU9oqRX4auT8z/cFQwVsuy52azW3ESzY9ahrvtPazwOyPWPj6wDdRq/QHQ4UfPcPsj8CvONITkf5QnP4AVAAqgkZpWHJxghhPUEFdNDPbSryzonkAKiL12dovFkuocNEzQIV21XDtEFABqIgs/xO3QVBFeiBOg7zu57NDRbn0R8vWNuohsZviwFI+kmGEz5WvU2Fs9TxG3YWv2xr72Hrfw8EOhaOjo64raqqwB3OdikrpDzc9iwwqoEuhLAdQAagAVNgkUK2GQ4UTrZd0i2ukwia7Qk3FlNj+eZw6lzLEXKElUiEHgmOpre88gTQ9NGltB13YPpoH+aHZGRLjIw0Pt1Ff3yi1D+coy1tFFz1HmvJbT/Nu5Xk4sgCBRig90SG3nq52vcLv0/nrtIxQqqWPpql4S+vU4Izoq40mDXmF8ugKTo5FpMKDnkULFdCloKoEqABUACoAFZYEvEwpLaqpcHX24o9ikG8aXKWvULPk67JzPEVz/VnqFRCQGsqnYxh6ummMsq1DlK/5IEqnScxmKaRq+HEsOCIGlX4JHe5QUfl6Vn8dE/IeBmjQcU8sJ7OPoE5c9XnxhYpiPYusUBO6FEqlABWKoQKzP/L6GbSuoFrkALM/9E2ZjfWUUsdA0ETrRURCHj2TsmjUAoOcOZDnykBFmiY6MhJI7FGJsn8rc71C+kNEblJzdGxbH51Xck/1AhU6dymt+ZRS6FIoqMDsD8WzPwAVgIqgQMWSixM01RdUGJEKW2YjHFQY02XdohdlocI4h9Me9kiFPdtSJ5GKxoYK6JIfygBUKIYKzP5QCxWNXOPAkt1zz2gjFV7SH7Fc/MocnDm1sZ5sNRVk1U2EgQqZzuHQR3s79XSNWTUVMnpRIVKRr80waig4FSNrKgr3VC+RiloUarrtcllpcIu2pkKkvaBLfljCaov0h+L0B6ACUBEmUhEnaMIy3YF8bN2fVKuaippBRd2/sdo+AKACUOHQwKQMgrq/5JPeXyWomBoZoZbeXiqeR5FXLS2zP2rrRxPde5ygopKeRRapSPTbVP9wgApABaDCJoFqhaFxihzohphyUDGVbqLBmXYR1s8vy10KFoAK9Y5cZQ9xgYpqegaoUKkF3q8NqABUACoAFZYE6ramwrvPQ0ufEogLVFS7bUBFNQnp+R1QAagAVAAqABV6/G1d9gKoqMvXVrObBlQohoqFhYWirc8XFxdp2bJljhe+e/du+bfm5ubIfuMLoT/I065QlfSsmr7cc889dP/992Prc7GJmrl+havnroNpon5GHIaK6667jgYGBhynqfAv3d3ddM0119T11uf2HXv9yDoJbT/72c/S8ccfT6tXr9aiL+XGzWr+rF7H2ybM/sjrVdDiT9Q4/IJWrFBLvnbLb5T0R7UltuXuq6VLapt/s00rdW2XQKhoqCmloUd2XqZ+vVgufiP19BxH/ZleyhmFzGQtFV9h6fbQ/df2AohUqPXXgApDvwEV/teUYNHFqTA0SVNKqy3ZPZV2LvNt/c1al2KlWGbC2a4e1p7wM+wg/eFHWvm2ZqSif26Ecr2tNG4sB+9p6Xb/3cXqDEAFoMKhkEEBIG6DIN+PzsWhkt5fsqDCWIrbdeGqeRpJDVFrljdEE1+dckBoKfzNlv7gGQmly4EDKsJFJs1dSut5nYrC/jEjYskzPnqp174x3coKS7fHChH83wygAlABqLBJAOmW8umWxoEK3g/NZ6Sizpbe9jNUIFLhR1rFkYrMuikBo+NEY2LlVaEjFmxUWrrdf3exOgNQAagAVAAqLAk0Uk1FpSW2/ddU1NfS235GIUCFH2kZbeWy7mK5+KV+mktPUIeoq2Du5Fqeqku3B+guTqcAKhRDBTYUy6t70JRKtchBnDbcUpH+iNPzxXpDsTh51YTdC0NFQ20oFun7E6m0kRz1cu7DgAoJs25Lz0bab+0uhg3FFG8oBqgAVAQFKpZcvUAFlumunRNX3XOcoKLelunmmpvxziXK5JlCRioAFWoHXbs9xMl/RvXRidkfxhsOOrBWi1TEaXZEVEpjN4o4PR+W6VY9fMfz+nFJf2CZ7njqR+ldIf2hOP2BdSrURiriNOg2KlRUc3XY+6OahOL9e1ygopqUsEx3NQnp+R1QAahwaFrQqAJfCIP8nomVZ81mf1RYwbLmKxfKgrxRah/OUbZKojySe622mqeCcQNQoUCoCb4koAJQkdhBMOmRA93Ppx0qXFaw5IG5pW9a6mzP5CTRel65sEdU2Ys1JdxWwTS0u9IKmsXXzOe/C1X63E/hbzIfLlYeyC/TnTNWTmynyy8nuuoq877MHLq5smLxvX51mOiVouuIqj1ehXNwhqan22gyt4oGvazmqWlgAlRoEnRCugFUACoAFTYJoIYjPutUuK1gab0qYynsMeqmodasBAHX1S0tqEiJlmOUbR2ipvFOEgxiLGplVNBxO9vy2oXFi8RgP9cvoxBWkZ0FFXkYSFPGKsRzvYaxJsHYqkF5r/1zRrFeyXXMfryukaFrDAJU6JJ0MvoBVCiGCsz+yBtK0JRKtUE+idW9dtcSp+fTO6XUtqqlPeRvRSPy60IUQ4XL6pa2SEXZdSlKrlkOICpCBYODjC4U1quYyi/FKVblzB+FpZurQUXpc7iv5qlrCIrT7I9Kz4yaCl0aUbkfTClVO7ulCVABqAgKVCy5xoUKW+ShaK8NY6CuFKlwWQPAAgKXZbmtwb8oUuEc+N2iF2akojO/uQOtc4t2iFUV06k56uraSltlpCKVj66IGIcZnbBHOKxIhe05KkZtFI8lgArFAk7Y5QEViqECsz/UQgUKQ/UVhsaqpkLsFNreNkDZznFj5UJ7TYVtdUsPkQqrpsK8psillItKcFEm2XcpNdIfDAqy1sN2DYFFRs2FUZchIEKusihLQZzXsQDDJXJirfBp71vTYIT0hyZBJ6QbpD8Upz8AFYCKMJGKOEGTdqhIiJOt98cAVNT7G9R7/4AKQIVD45IyCPKDYZfS4tdbrUalUfb+0Otm67s3QEV9vz/ddw+oAFQAKmwSCDPoJh1iEKnQ7Z7j0R+gIh7voV7uAlABqABUACosCSBSUS+uW999Air0yToJPQEqFEMFZn+oramI0+wIFZGKOD2f3imlSXCvyXgGzP5IxnvU9RSY/aF49gegAlARpkYFUKHLFaKfchIAVEA3/EgAUKEYKjD7Qy1UxGl2hIpIRZyeDzUVflxrctoi/ZGcd6njSZD+UJz+AFQAKsJEKgAVOtwg+qgkAUAF9MOPBAAVgAoUaqJQE4Wafrxmg7UFVDTYCw/5uIAKQAWgAlABqAjpSJN8OqAiyW83+mcDVAAqABWACkBF9L41MVcEVCTmVWp5EEAFoAJQAagAVGhxt/XZCaCiPt9bre4aUKEYKhYWFpbsL3dxcZGWLVvmeN+7d++Wf2tubo7sN74Q+oM87QpVSc+q6cs999xDd999N33lK1/x5a/m5+epv7+fbr/9dl/noXE8JMDv76abbqKBgQHHDanwL93d3cTTEo844ghfAuD7W7lyJX3iE5/wdR4aRyuBK6+8kk466SRavXq1Fn0pN25W82f1Ot42YfZHXq+CzoDAstm/oBUr1JKv3fIrzTZ5/PHHadOmTY79VISOy0s0NTU5nAj/xv/dZ5996OCDD3b8vnPnTtp7771dz6t0zSC/8Tnoz/0dVZPnqaeeSmeddZbjPamYnXTZZZdJeHU7GIrdPrxYx/jdHnTQQbT//vsXnVpNP8s9O/SlvE1X05err77a1d5V6Avfi9seT/z3JPYHqDDMG1Dhf3OzpBqFV4gp5yyC6hLk6V8HAfXxgXrYw54OzmxE/QRUACoCR2kwCGIQLPWijehEAaGI9AYBqqT6T0AFoAJQ0WDhSQyCGAQxCDqjCkkd5HXbO6ACUAGoAFT4CtsivdNYOXLdgxL6q2/obcKGYnkVDuooq4V747ThVpCvEzzf/9Dy5Wo34LE7UeiLv7w09BP66ScFB31Rry+ACsWRCgwSGCTsTg9OTb1TA6ThIynIBxSfA38d3l8j/aEYKpI4ZQjhSXVOG/oS3qlBP6GfQaEC9hfe/gAVgIrAqR8UNmH2h5/QM/QF+gJ9KZZAEiEGUAGoAFSgUBOFmjYJBK2vAjQBmgBNYkEyrKiptlAziSSK8DLCywgvY0qi11ohQFpjzRYCVCBSgUgFIhWIVCBSISVQrZAYH0nhaw6S/lGG2R+KoQLVxNEaIeQJeXr9QkY1f/TpCNgf7K+a/QEqABWhIhVwMnAy1ZyM/XfoC/QF+lKQQBLtAekPxVCBcGG0ThTyhDz9DErQF+gL9KUgAR32AKgAVISKVOhQ0qTnIPF8KHxF4SsKX73CT9wLXwEVgApABQo1UaiJQk0UagoJ4CMpfGQLUAGoAFQAKgAVgApABaCC9twTUOHLGXJjkGh4pUG4HuF6hOsRrk9KuB7+LFp/htkfiiMVSazuRTV/tEYIeUKeQSEN/iXajyTIM7w8ARWAilDpDxhheCMEVAAqABXukR/4l/rzL6ipUAwVSLdEaxSQJ+TpNeyOdGf0i1/B/mB/1ewPUAGoCBWpgJOBk6nmZJCzVheJgf3B/uJmf4AKQAWgArM/fBU8x32ePCAGEBM0nQRICw9pgApABaACUAGosEkA0NRYu2oCQqOFUEAFoAJQAagAVAAqpASwS+kvaMWKFbCHEPYAqABUACoAFXCiIZwovnSj/dKFPOtbnk0LCwtL9pe4uLhIy5YtcziZ3bt3y781NzdH9htfCP1BnnaFqqRn0BfYX6nzgb7AX/vRCeiLen1BpAKRCkQqEKlApAKRCqQ/hARQqIlCTV/OkBtDacIrDcKT9R2exPvD+2Md8LvPA/ynf5k1Yo0KIhWIVCBSgUiFLzjH7AjMjihVmKA60YiDbtKhHlABqABUACoAFUh/IP2BSLbv6JUbFAIqABWACkAFoAJQAagAVEQCFf8PyIFiQkk5MiIAAAAASUVORK5CYII=;" vertex="1" parent="1">
          <mxGeometry x="10" y="10" width="533" height="731" as="geometry" />
        </mxCell>
      </root>
    </mxGraphModel>
  </diagram>
</mxfile>
